<svg width="312" height="312" viewBox="0 0 312 312" fill="none" xmlns="http://www.w3.org/2000/svg">
<path d="M102.474 178.642C104.314 178.642 105.806 177.15 105.806 175.31C105.806 173.47 104.314 171.978 102.474 171.978C100.633 171.978 99.1417 173.47 99.1417 175.31C99.1417 177.15 100.633 178.642 102.474 178.642Z" fill="#D7E8F0"/>
<path d="M80.3341 141.202C81.2542 141.202 82.0002 140.456 82.0002 139.536C82.0002 138.615 81.2542 137.87 80.3341 137.87C79.4137 137.87 78.668 138.615 78.668 139.536C78.668 140.456 79.4137 141.202 80.3341 141.202Z" fill="#D7E8F0"/>
<path d="M146.656 119.359C147.481 119.359 148.151 118.69 148.151 117.864C148.151 117.039 147.481 116.37 146.656 116.37C145.831 116.37 145.162 117.039 145.162 117.864C145.162 118.69 145.831 119.359 146.656 119.359Z" fill="#D7E8F0"/>
<path d="M211.651 68.2656C212.476 68.2656 213.145 67.5964 213.145 66.7711C213.145 65.9456 212.476 65.2766 211.651 65.2766C210.826 65.2766 210.156 65.9456 210.156 66.7711C210.156 67.5964 210.826 68.2656 211.651 68.2656Z" fill="#D7E8F0"/>
<path d="M112.186 106.922C112.527 107.047 112.884 107.123 113.247 107.147H113.256C113.27 107.149 113.285 107.15 113.3 107.151C113.336 107.153 113.373 107.151 113.409 107.147H113.621C113.512 107.158 113.403 107.16 113.3 107.151C113.299 107.151 113.299 107.151 113.299 107.151C113.402 107.16 113.512 107.16 113.621 107.16H113.409C113.355 107.166 113.301 107.166 113.247 107.16C112.909 107.159 112.574 107.112 112.248 107.022C112.236 107.01 112.226 106.994 112.217 106.979C112.208 106.963 112.198 106.947 112.186 106.935V106.922Z" fill="#3FBDF1"/>
<path d="M131.137 107.147C132.251 107.11 133.099 106.81 134.123 105.587V105.6C134.333 105.348 134.548 105.096 134.77 104.847C136.245 103.19 137.987 101.69 140.325 101.734C140.221 101.736 140.117 101.74 140.014 101.748C140.117 101.745 140.221 101.744 140.325 101.746C137.767 101.787 135.91 103.728 134.335 105.6C133.236 106.885 132.347 107.135 131.137 107.16C131.315 107.154 131.486 107.141 131.651 107.119C131.486 107.135 131.315 107.144 131.137 107.147Z" fill="#3FBDF1"/>
<path d="M140.575 101.746C140.646 101.74 140.716 101.74 140.787 101.746V101.759C143.876 101.999 142.874 104.635 141.124 107.11L140.887 107.16C140.89 107.155 140.894 107.15 140.897 107.145L140.887 107.147C141.823 105.824 142.575 104.461 142.575 103.422C142.575 103.414 142.575 103.406 142.575 103.398C142.572 102.506 142.019 101.873 140.575 101.759C140.605 101.756 140.635 101.755 140.665 101.754C140.635 101.751 140.605 101.749 140.575 101.746Z" fill="#3FBDF1"/>
<path d="M200.139 170.801C200.327 170.566 200.528 170.341 200.741 170.127C200.752 170.168 200.764 170.208 200.775 170.249C200.839 170.473 200.904 170.702 200.978 170.914C200.859 170.825 200.72 170.768 200.573 170.748C200.426 170.729 200.277 170.747 200.139 170.801Z" fill="#3FBDF1"/>
<path d="M246.167 274.582C249.793 274.343 253.31 273.247 256.429 271.384C273.18 261.456 278.927 237.154 278.556 219.043C278.402 212.589 277.565 206.17 276.06 199.892C273.071 187.166 267.546 174.988 260.535 164.19C251.612 150.462 227.99 132.575 235.194 110.685" stroke="#CCDDE2" stroke-width="5.15" stroke-miterlimit="10"/>
<path d="M161.052 31.7678C163.042 30.6671 165.131 29.7552 167.292 29.044C224.7 10.2304 256.046 70.4839 237.145 103.837C236.673 104.674 236.248 105.537 235.872 106.423" stroke="#CCDDE2" stroke-width="5.15" stroke-miterlimit="10"/>
<path d="M97.7462 235.607C90.5995 230.566 83.7945 225.057 77.3757 219.118C57.3141 200.566 37.5239 175.603 39.3991 146.662C41.0745 120.766 59.5511 99.4594 81.519 87.2726C96.208 79.1201 114.111 77.7348 127.81 67.782C134.612 62.8586 140.337 56.419 144.175 48.931C145.305 46.7304 146.64 44.6413 148.162 42.691" stroke="#CCDDE2" stroke-width="5.15" stroke-miterlimit="10"/>
<path d="M83.4226 270.442C83.2354 272.002 81.8251 272.513 80.5272 273.849L80.4274 273.948H47.736C47.0964 273.965 46.4596 273.853 45.8637 273.619C45.2678 273.386 44.7246 273.035 44.2666 272.588C43.8082 272.142 43.4438 271.608 43.1952 271.018C42.9465 270.428 42.8183 269.795 42.8183 269.155C42.8183 268.515 42.9465 267.881 43.1952 267.291C43.4438 266.702 43.8082 266.168 44.2666 265.721C44.7246 265.274 45.2678 264.924 45.8637 264.69C46.4596 264.457 47.0964 264.345 47.736 264.361L73.4386 260.373C73.4386 260.373 72.5837 271.028 83.4226 270.442Z" fill="#3FBDF1"/>
<path d="M207.867 294.84C207.506 295.286 207.058 295.652 206.549 295.916C206.04 296.179 205.483 296.335 204.911 296.373C204.339 296.411 203.766 296.33 203.227 296.135C202.688 295.941 202.195 295.637 201.779 295.243C201.163 294.701 200.493 294.223 199.78 293.817C203.867 280.915 190.732 272.064 190.388 271.839C192.189 272.479 193.901 273.087 195.502 273.69C196.691 274.126 197.814 274.554 198.878 274.938C202.715 276.401 205.822 279.315 207.53 283.05C208.915 286.104 210.241 292.032 207.867 294.84Z" fill="#3FBDF1"/>
<path d="M141.938 135.218C141.938 135.218 134.688 151.579 147.554 168.271C147.554 168.271 161.282 161.541 161.267 166.689C161.267 166.689 170.362 194.847 171.07 212.353C171.07 212.353 177.653 218.834 181.26 215.268C184.867 211.701 201.228 194.13 202.136 181.631C203.044 169.132 199.983 170.795 199.983 170.795C199.983 170.795 212.681 155.261 236.175 165.216C236.175 165.216 246.87 213.299 194.785 226.765C194.785 226.765 235.922 248.455 235.345 254.42C235.345 254.42 248.583 231.304 247.513 211.527C246.443 191.749 246.215 156.727 219.352 132.403L199.992 122.148L196.517 128.684C196.517 128.684 187.565 138.191 183.478 138.556C179.391 138.921 174.62 136.778 175.132 128.11C175.644 119.443 177.628 120.432 172.948 122.008C168.268 123.583 141.938 135.218 141.938 135.218Z" fill="#2E2E2E"/>
<path d="M211.595 84.8266C210.181 83.7867 208.645 82.9224 207.021 82.2526L204.46 81.1762C203.895 80.939 203.309 80.7144 202.722 80.5272C198.382 79.1762 194.922 78.9672 192.133 79.4134C190.843 79.6071 189.588 79.9865 188.407 80.5397C185.602 81.8881 183.378 84.205 182.146 87.0636C181.771 87.9122 180.994 88.6392 180.046 89.2258C180.67 84.6768 182.957 78.5522 190.782 77.6818C195.558 77.1701 200.107 78.1685 204.07 79.7441C206.766 81.1434 209.291 82.8491 211.595 84.8266Z" fill="#3FBDF1"/>
<path d="M211.595 84.8266C210.181 83.7867 208.645 82.9224 207.021 82.2526L204.46 81.1762C203.895 80.939 203.309 80.7144 202.722 80.5272C198.382 79.1762 194.922 78.9672 192.133 79.4134C190.843 79.6071 189.588 79.9865 188.407 80.5397C185.602 81.8881 183.378 84.205 182.146 87.0636C181.771 87.9122 180.994 88.6392 180.046 89.2258C180.67 84.6768 182.957 78.5522 190.782 77.6818C195.558 77.1701 200.107 78.1685 204.07 79.7441C206.766 81.1434 209.291 82.8491 211.595 84.8266Z" fill="#3FBDF1"/>
<path d="M218.447 99.84C218.424 100.572 218.358 101.301 218.247 102.024C218.208 102.378 218.15 102.729 218.072 103.075C218.072 103.075 218.072 103.113 218.072 103.125C218.01 103.522 217.923 103.913 217.81 104.298C216.709 108.666 214.247 112.676 210.497 115.175C207.308 117.3 203.396 118.048 199.596 118.073C199.084 118.089 198.557 118.073 198.036 118.048C196.535 113.4 203.237 112.011 202.185 107.699C202.145 107.526 202.095 107.355 202.036 107.188C201.187 104.835 198.148 105.004 196.061 103.962C196.223 103.088 197.162 102.149 197.599 100.842C198.223 98.904 197.424 97.5187 195.986 96.4299C195.674 95.3535 194.797 94.5173 193.686 93.8059C192.965 93.3573 192.287 92.8425 191.662 92.2678C191.482 91.9311 191.332 91.5792 191.212 91.2163C191.049 90.7405 190.924 90.2522 190.838 89.7562C190.024 85.0762 194.189 81.0389 198.931 81.5318C200.857 81.7459 202.756 82.1515 204.6 82.7424C205.187 82.9296 205.773 83.1542 206.338 83.3914L208.9 84.4678C210.523 85.1376 212.059 86.0019 213.474 87.0418C213.495 87.0664 213.521 87.0873 213.548 87.1042C213.564 87.1042 213.548 87.1291 213.576 87.1291C215.055 87.0698 216.556 87.9029 216.023 89.2882C215.991 89.3693 216.063 89.3599 216.063 89.4161C216.764 90.5056 217.307 91.6881 217.676 92.9292C218.314 95.1744 218.575 97.5097 218.447 99.84Z" fill="#3FBDF1"/>
<path d="M169.456 99.1879V101.203C169.459 101.428 169.381 101.646 169.236 101.818C169.091 101.99 168.889 102.104 168.667 102.139L144.643 106.464L140.78 107.166C141.716 105.84 142.456 104.476 142.468 103.44C142.468 102.526 141.928 101.88 140.468 101.765C137.66 101.565 135.679 103.615 134.016 105.603C132.416 107.515 131.255 107.163 128.84 107.163H113.302C112.911 107.164 112.521 107.113 112.142 107.013C111.522 106.216 111.187 105.234 111.19 104.224V95.94C111.191 94.7394 111.66 93.5866 112.498 92.727C113.336 91.8671 114.477 91.3689 115.677 91.338C115.711 91.7133 115.805 92.0809 115.954 92.4269C116.111 92.8462 116.363 93.2234 116.691 93.5282C117.027 93.834 117.463 94.0068 117.917 94.015C118.079 94.0112 118.239 93.9819 118.391 93.9276C118.898 93.736 119.324 93.3785 119.602 92.9136C120.316 91.8154 120.379 90.4176 120.416 89.101C120.466 90.1898 120.329 91.285 120.528 92.352C120.703 93.288 121.19 94.277 122.004 94.7388C122.124 94.8071 122.249 94.8658 122.379 94.9135C122.687 95.0252 123.017 95.0636 123.343 95.0258C123.803 94.9925 124.247 94.8374 124.628 94.5766C125.281 94.1257 125.772 93.4771 126.029 92.7264C126.218 92.1857 126.335 91.6222 126.378 91.051C126.383 92.2899 126.594 93.5195 127.002 94.6889C127.149 95.0992 127.359 95.4835 127.626 95.8277C127.734 95.9606 127.856 96.0816 127.988 96.1896C128.463 96.5322 129.042 96.6997 129.626 96.6638C129.988 96.6432 130.343 96.5587 130.675 96.4142C131.888 95.8651 132.687 94.589 132.89 93.2755C132.952 94.5391 133.626 96.0024 134.79 96.589C135.142 96.7815 135.537 96.8804 135.938 96.876C136.28 96.8698 136.619 96.8064 136.94 96.6888C137.466 96.4897 137.939 96.1718 138.323 95.76C138.706 95.3481 138.99 94.8536 139.152 94.3145C139.489 93.2256 139.401 91.1508 138.902 89.9465C139.888 90.0463 141.039 90.2335 141.801 90.3958L140.939 90.845L169.456 99.1879Z" fill="#D7E8F0"/>
<path d="M170.38 211.97C169.881 200.114 167.482 185.996 162.093 169.357C159.136 160.212 157.753 152.693 157.588 146.531" stroke="black" stroke-width="5.15" stroke-miterlimit="10"/>
<path d="M210.142 235.076L195.871 226.783L179.244 217.111L170.38 211.96L156.131 203.674C151.304 201.064 145.784 200.022 140.338 200.691C134.891 201.36 129.788 203.708 125.736 207.408L74.0941 259.437C73.3365 260.199 72.35 260.691 71.2861 260.838L47.156 264.186C45.9426 264.375 44.8444 265.013 44.0784 265.973C43.3121 266.933 42.9343 268.145 43.0189 269.37C43.1037 270.595 43.6447 271.744 44.5358 272.59C45.4266 273.435 46.6019 273.915 47.8299 273.936H76.1564C77.0344 273.934 77.8961 273.699 78.6524 273.253L97.597 262.021L130.56 242.521C134.996 239.897 140.216 240.268 144.506 242.995C147.115 244.658 149.13 247.132 151.401 249.216C157.744 255.028 164.73 260.094 172.224 264.317C175.024 265.896 177.891 267.352 180.826 268.685" stroke="black" stroke-width="5.15" stroke-miterlimit="10"/>
<path d="M195.312 273.699C195.312 273.699 195.312 273.699 195.337 273.699C198.695 273.997 202.068 274.077 205.436 273.936C214.484 273.599 222.637 269.362 229.314 262.273C250.302 239.997 256.589 189.577 229.626 143.754C229.612 143.734 229.6 143.713 229.588 143.692C223.66 133.642 212.013 126.167 199.736 122.604" stroke="black" stroke-width="5.15" stroke-miterlimit="10"/>
<path d="M229.597 143.704C229.597 143.704 260.938 206.207 195.87 226.783" stroke="black" stroke-width="5.15" stroke-miterlimit="10"/>
<path d="M179.244 217.121C184.595 212.422 207.324 190.969 201.059 171.544C193.97 149.567 199.811 143.704 199.811 143.704" stroke="black" stroke-width="5.15" stroke-miterlimit="10"/>
<path opacity="0.28" d="M151.598 92.0743L154.462 92.7607L148.578 106.401H145.162L151.598 92.0743Z" fill="white"/>
<path opacity="0.28" d="M125.736 92.0743L128.6 92.7607L122.716 106.401H119.302L125.736 92.0743Z" fill="white"/>
<path d="M176.417 120.956C176.417 120.956 133.084 133.311 121.78 152.468" stroke="black" stroke-width="5.15" stroke-miterlimit="10"/>
<path d="M110.953 106.392C103.465 126.145 103.128 147.457 104.401 161.145C104.63 163.583 105.404 165.938 106.665 168.038C107.925 170.137 109.641 171.926 111.686 173.274C113.731 174.621 116.052 175.492 118.478 175.823C120.904 176.154 123.374 175.936 125.705 175.185L160.518 164.159" stroke="black" stroke-width="5.15" stroke-miterlimit="10"/>
<path d="M176.418 120.956C175.532 123.895 174.979 127.068 175.12 130.141C175.257 133.109 176.624 136.725 179.488 138.051C181.272 138.874 183.397 138.65 185.21 137.895C191.394 135.327 197.094 129.078 199.98 123.162L197.677 117.68" stroke="black" stroke-width="5.15" stroke-miterlimit="10"/>
<path d="M181.054 137.823L175.46 115.78" stroke="black" stroke-width="5.15" stroke-miterlimit="10"/>
<path d="M189.531 113.518C189.531 113.518 183.157 120.282 172.302 114.354C161.448 108.426 169.22 102.024 169.22 102.024" stroke="black" stroke-width="5.15" stroke-miterlimit="10"/>
<path d="M138.506 258.136C144.157 258.785 150.543 260.074 157.092 261.712C157.57 261.824 158.044 261.949 158.531 262.074C163.732 263.412 169.02 264.95 174.131 266.523C181.984 268.975 189.372 271.537 195.309 273.699C196.507 274.136 197.659 274.563 198.741 274.947C202.615 276.397 205.766 279.31 207.515 283.059C208.916 286.073 210.266 292.01 207.852 294.834C207.482 295.281 207.026 295.647 206.51 295.911C205.994 296.175 205.43 296.331 204.851 296.368C204.273 296.406 203.693 296.325 203.147 296.131C202.601 295.936 202.101 295.632 201.677 295.236C198.816 292.584 178.489 281.533 132.987 278.884C99.884 276.959 96.8201 267.197 97.6095 262.036" stroke="black" stroke-width="5.15" stroke-miterlimit="10"/>
<path d="M158.53 262.08C161.403 261.287 164.333 260.718 167.294 260.38" stroke="black" stroke-width="5.15" stroke-miterlimit="10"/>
<path d="M139.068 89.9527C140.145 90.0485 141.215 90.2111 142.272 90.4394L169.672 96.9914V101.194C169.671 101.417 169.592 101.633 169.448 101.804C169.305 101.975 169.106 102.09 168.886 102.13L140.983 107.153" stroke="black" stroke-width="5.15" stroke-miterlimit="10"/>
<path d="M179.584 89.4754C179.584 89.4754 178.074 77.4758 188.813 76.3714C201.059 75.1234 211.651 84.9077 211.651 84.9077" stroke="black" stroke-width="5.15" stroke-miterlimit="10"/>
<path d="M116.267 89.6626H113.49C112.27 89.6635 111.1 90.1484 110.237 91.0113C109.374 91.8743 108.889 93.0443 108.888 94.2646V102.551C108.887 103.157 109.006 103.757 109.237 104.318C109.469 104.877 109.808 105.386 110.236 105.815C110.665 106.243 111.174 106.584 111.733 106.815C112.293 107.047 112.893 107.166 113.499 107.166H129.043C131.455 107.166 132.616 107.515 134.216 105.606C135.879 103.618 137.854 101.568 140.668 101.768C143.788 102.005 142.743 104.679 140.98 107.169C139.642 109.041 137.86 110.844 137.18 111.343C134.813 113.053 132.177 114.355 129.38 115.194C128.146 115.576 127.053 116.318 126.242 117.324C125.431 118.331 124.939 119.556 124.828 120.844C124.066 129.486 124.901 138.194 127.293 146.534" stroke="black" stroke-width="5.15" stroke-miterlimit="10"/>
<path d="M133.086 93.3785C132.999 95.3285 134.528 97.6279 137.142 96.6888C137.668 96.4898 138.142 96.1718 138.526 95.76C138.909 95.3485 139.193 94.8536 139.354 94.3145C139.716 93.1382 139.828 91.5502 139.204 90.402C139.138 90.2594 139.054 90.1253 138.955 90.0026C138.93 89.9777 138.905 89.9402 138.88 89.9153" stroke="black" stroke-width="5.15" stroke-miterlimit="10"/>
<path d="M131.976 88.53C132.803 89.9184 133.346 91.625 133.109 93.2506C132.915 94.5797 132.123 95.8651 130.897 96.4111C130.469 96.6161 129.994 96.7035 129.522 96.6638C129.049 96.6245 128.595 96.4595 128.207 96.1865C127.748 95.7849 127.406 95.2661 127.218 94.6858C126.529 92.8762 126.51 90.8107 126.616 88.9013C126.616 90.1961 126.697 91.4909 126.232 92.7295C125.97 93.4761 125.481 94.1229 124.835 94.5797C124.51 94.8031 124.139 94.9494 123.749 95.0077C123.359 95.0664 122.961 95.0349 122.585 94.9166C121.54 94.5485 120.925 93.4378 120.732 92.3489C120.538 91.26 120.669 90.1399 120.616 89.0323C120.585 90.3708 120.532 91.7842 119.805 92.9105C119.428 93.5002 118.813 93.9994 118.114 94.0118C117.662 94.0065 117.227 93.8343 116.894 93.5282C116.567 93.2215 116.312 92.845 116.149 92.4269C115.742 91.4104 115.742 90.2763 116.149 89.2601C116.409 88.5312 116.948 87.9356 117.646 87.6034C117.953 87.4723 118.285 87.413 118.617 87.4302C118.95 87.4474 119.274 87.5403 119.565 87.702C119.856 87.8639 120.107 88.0898 120.297 88.3631C120.487 88.6364 120.613 88.9496 120.663 89.2788C120.843 88.862 121.11 88.4882 121.446 88.1827C121.781 87.8773 122.179 87.6467 122.61 87.5066C123.483 87.2333 124.422 87.2652 125.275 87.5971C125.651 87.7219 125.991 87.936 126.267 88.2211C126.402 88.3653 126.503 88.5391 126.561 88.7281C126.619 88.9175 126.632 89.1175 126.601 89.3131C126.728 88.8816 126.947 88.4826 127.242 88.1437C127.537 87.8046 127.903 87.5335 128.313 87.3488C128.723 87.1644 129.168 87.0705 129.618 87.0739C130.068 87.0776 130.511 87.1781 130.919 87.3694C131.642 87.6814 132.011 88.5238 132.344 89.1977C132.344 88.7422 133.168 88.0246 133.521 87.8467C135.636 86.7766 138.201 88.5924 139.23 90.3958" stroke="black" stroke-width="5.15" stroke-miterlimit="10"/>
<path d="M192.083 79.4133C192.083 79.4133 187.244 82.9514 189.275 89.0011C190.011 91.1851 191.525 92.5642 193.425 93.7778C195.225 94.926 196.386 96.4142 195.662 98.6263C194.9 100.888 192.685 102.027 195.412 103.728C197.487 105.029 200.875 104.664 201.774 107.16C203.499 111.883 196.211 113.197 197.774 118.023" stroke="black" stroke-width="5.15" stroke-miterlimit="10"/>
<path d="M263.387 203.28C257.484 202.204 253.041 198.569 249.943 193.53C247.135 188.969 245.513 183.762 244.452 178.554C244.452 178.526 244.452 178.511 244.452 178.501L235.445 145.741C235.435 145.733 235.427 145.722 235.423 145.71C235.416 145.687 235.407 145.663 235.395 145.642C235.395 145.642 235.395 145.623 235.395 145.617C235.273 145.286 234.914 144.397 234.459 143.03C234.461 143.022 234.461 143.014 234.459 143.005C233.045 138.734 232.057 134.333 231.51 129.867C231.348 128.56 231.22 127.187 231.151 125.78C231.151 125.468 231.114 125.156 231.083 124.859C230.804 122.098 230.066 119.403 228.899 116.885C228.818 116.682 228.718 116.479 228.624 116.298C228.49 116.02 228.365 115.752 228.222 115.484C227.804 114.657 227.364 113.896 226.911 113.169C226.649 112.751 226.384 112.357 226.128 111.971C225.345 110.816 224.568 109.824 223.876 108.994L223.202 108.227C223.064 108.058 222.921 107.899 222.787 107.765C222.453 107.4 222.163 107.116 221.938 106.879C221.863 106.791 217.667 104.726 217.598 104.673L218.051 102.018C222.141 102.018 229.526 104.589 232.587 106.351C238.689 109.874 242.72 116.676 243.922 123.468C244.589 127.249 244.714 131.121 245.354 134.906C246.939 144.378 253.466 152.331 259.572 159.579C262.052 162.505 265.063 165.273 267.949 167.943C268.192 168.18 268.439 168.414 268.679 168.633C269.134 169.045 269.574 169.46 270.002 169.881L270.208 170.084C273.547 173.268 276.314 177.003 278.388 181.125C278.394 181.128 278.4 181.132 278.404 181.138C278.408 181.143 278.41 181.15 278.41 181.157C279.121 182.612 279.545 184.19 279.658 185.805C279.654 185.836 279.654 185.866 279.658 185.896C279.789 187.303 279.82 188.763 279.911 190.264C279.906 190.537 279.885 190.81 279.848 191.081C279.841 191.297 279.819 191.512 279.783 191.724C279.745 192.116 279.682 192.504 279.596 192.888C279.594 192.958 279.579 193.026 279.552 193.091C279.524 193.264 279.488 193.436 279.443 193.605C279.39 193.818 279.337 194.03 279.281 194.229C279.224 194.429 279.159 194.638 279.096 194.853C279.006 195.131 278.909 195.402 278.784 195.668C278.712 195.881 278.626 196.089 278.529 196.292C278.391 196.606 278.234 196.913 278.061 197.209C278.003 197.34 277.933 197.466 277.852 197.583C277.726 197.826 277.585 198.059 277.427 198.282C274.332 202.859 268.61 204.235 263.387 203.28Z" fill="#3FBDF1"/>
<path d="M235.386 145.607C234.699 144.047 233.975 142.487 233.23 140.927C233.629 141.598 234.032 142.284 234.428 142.999C234.43 143.007 234.43 143.016 234.428 143.024C238.646 150.69 247.454 190.111 244.081 175.884C242.477 169.123 238.022 149.763 244.434 178.501L235.426 145.741C235.417 145.733 235.409 145.722 235.404 145.71C235.398 145.687 235.388 145.663 235.376 145.642C235.376 145.642 235.395 145.614 235.386 145.607Z" fill="#2E2E2E"/>
<path d="M218.216 99.8213C223.271 99.8213 229.448 102.227 232.515 103.986C238.627 107.493 242.652 114.314 243.844 121.106C244.508 124.894 244.64 128.756 245.276 132.55C246.864 142.019 251.915 150.409 258.034 157.65C261.129 161.263 264.424 164.701 267.902 167.946C271.493 171.35 274.929 174.186 277.262 178.626C280.289 184.414 281.247 192.573 277.437 198.254C274.348 202.856 268.635 204.238 263.397 203.287C257.491 202.21 253.039 198.576 249.947 193.543C246.855 188.51 245.579 182.873 244.019 177.219L238.877 158.39C236.309 148.986 232.637 139.579 231.47 129.864C231.314 128.547 231.199 127.181 231.121 125.783C231.121 125.471 231.074 125.159 231.043 124.847C230.568 120.608 229.125 116.536 226.824 112.944C225.693 111.144 224.372 109.471 222.884 107.952C221.352 106.392 219.283 105.606 217.58 104.289" stroke="black" stroke-width="5.15" stroke-miterlimit="10"/>
<path d="M169.668 97.4782L172.707 95.6062C172.977 95.3325 173.13 94.9641 173.132 94.5797V92.8169C173.13 92.4899 173.24 92.1723 173.443 91.9161C173.646 91.6597 173.93 91.4803 174.249 91.4066C176.107 91.0073 177.901 90.3543 179.581 89.466C180.719 88.842 181.668 88.0308 182.095 87.0542C183.328 84.196 185.552 81.8794 188.357 80.5303C189.538 79.9768 190.793 79.5974 192.082 79.404C194.859 78.9578 198.322 79.1606 202.669 80.5147C203.261 80.6988 203.845 80.9234 204.416 81.1637L206.974 82.2432C209.851 83.4004 212.416 85.2172 214.462 87.5472C215.819 89.1013 216.831 90.9262 217.429 92.9011C219.707 100.667 217.22 110.504 210.253 115.15C206.631 117.562 202.066 118.22 197.798 118.033" stroke="black" stroke-width="5.15" stroke-miterlimit="10"/>
<path d="M182.27 90.8419C182.27 90.8419 184.301 92.689 183.081 95.6342" stroke="black" stroke-width="5.15" stroke-miterlimit="10"/>
<path d="M32.0861 274.014H106.872" stroke="black" stroke-width="5.15" stroke-miterlimit="10"/>
<path d="M198.734 274.962H266.476" stroke="black" stroke-width="5.15" stroke-miterlimit="10"/>
<path d="M151.404 68.225L156.724 65.2766L157.42 74.5462L163.772 71.0268L162.864 85.4194L160.097 77.2855L154.833 80.3369L151.404 68.225Z" fill="#D7E8F0"/>
<path d="M186.398 43.4585L192.369 47.4708L182.039 54.6094L189.174 59.3986L172.17 68.2313L180.186 59.5171L174.123 55.6452L186.398 43.4585Z" fill="#3FBDF1"/>
<path d="M164.939 40.5943L159.151 34.6819L157.638 36.8191L155.551 34.6819L150.699 41.5335L135.586 24.57L140.25 18.2675L148.35 31.6555L150.325 28.9941L156.275 20.9445L157.613 23.9803L164.939 40.5943Z" fill="#3FBDF1"/>
<path d="M131.994 24.5669L138.631 15.6L148.346 31.6555L156.271 20.9446L167.874 47.2586L155.554 34.6757L149.117 43.7892L131.994 24.5669Z" stroke="black" stroke-width="5.15" stroke-miterlimit="10"/>
</svg>
