<svg width="312" height="312" viewBox="0 0 312 312" fill="none" xmlns="http://www.w3.org/2000/svg">
<path d="M82.5955 170.299C82.5955 170.299 77.8094 124.747 110.388 118.613C142.967 112.479 149.023 117.624 171.715 102.049C194.407 86.4739 266.101 132.447 251.587 197.112C249.875 204.781 247.703 212.34 245.082 219.748" stroke="#CCDDE2" stroke-width="3.7" stroke-miterlimit="10"/>
<path d="M223.102 140.144H211.252V294.893H223.102V140.144Z" stroke="#CCDDE2" stroke-width="3.7" stroke-miterlimit="10"/>
<path d="M117.088 259.244V140.144H211.252V294.896H195.387V247.369C195.383 245.464 194.623 243.638 193.274 242.293C191.925 240.947 190.098 240.192 188.192 240.193H140.831C138.926 240.193 137.099 240.949 135.75 242.294C134.401 243.639 133.641 245.464 133.636 247.369V294.896H118.195L117.088 259.244ZM128.385 220.699C128.286 220.699 128.187 220.679 128.096 220.64C128.004 220.602 127.921 220.546 127.851 220.475C127.781 220.404 127.726 220.32 127.689 220.228C127.651 220.136 127.633 220.037 127.633 219.938V213.848C127.633 213.648 127.712 213.457 127.854 213.316C127.995 213.175 128.186 213.096 128.385 213.096H140.665C140.765 213.095 140.864 213.114 140.956 213.151C141.048 213.189 141.132 213.244 141.202 213.314C141.273 213.384 141.329 213.467 141.368 213.558C141.406 213.65 141.426 213.748 141.427 213.848V219.938C141.427 220.038 141.408 220.137 141.37 220.23C141.332 220.323 141.275 220.406 141.205 220.477C141.134 220.548 141.05 220.604 140.958 220.642C140.865 220.68 140.766 220.7 140.665 220.699H128.385ZM149.972 230.584C149.971 230.784 149.89 230.976 149.747 231.118C149.605 231.259 149.412 231.339 149.211 231.339H136.931C136.73 231.339 136.537 231.259 136.395 231.118C136.252 230.976 136.171 230.784 136.17 230.584V224.487C136.172 224.287 136.253 224.096 136.396 223.955C136.538 223.814 136.731 223.735 136.931 223.735H149.211C149.411 223.735 149.604 223.814 149.746 223.955C149.889 224.096 149.97 224.287 149.972 224.487V230.584ZM143.832 219.938V213.848C143.833 213.748 143.853 213.65 143.891 213.558C143.93 213.467 143.986 213.384 144.057 213.314C144.127 213.244 144.211 213.189 144.303 213.151C144.396 213.114 144.494 213.095 144.594 213.096H156.874C157.074 213.096 157.266 213.175 157.409 213.316C157.552 213.456 157.633 213.648 157.635 213.848V219.938C157.635 220.14 157.554 220.333 157.411 220.475C157.269 220.618 157.076 220.699 156.874 220.699H144.59C144.491 220.699 144.392 220.68 144.3 220.641C144.208 220.603 144.124 220.547 144.053 220.476C143.983 220.406 143.927 220.322 143.889 220.229C143.851 220.137 143.832 220.038 143.832 219.938ZM166.115 230.584C166.116 230.683 166.097 230.78 166.059 230.872C166.021 230.964 165.966 231.047 165.896 231.117C165.826 231.187 165.743 231.243 165.652 231.281C165.561 231.319 165.463 231.339 165.363 231.339H153.071C152.972 231.339 152.874 231.319 152.782 231.281C152.691 231.243 152.608 231.187 152.538 231.117C152.468 231.047 152.413 230.964 152.375 230.872C152.337 230.78 152.318 230.683 152.319 230.584V224.487C152.319 224.288 152.398 224.097 152.539 223.955C152.68 223.814 152.871 223.735 153.071 223.735H165.36C165.56 223.735 165.751 223.814 165.892 223.955C166.033 224.097 166.112 224.288 166.112 224.487L166.115 230.584ZM173.828 219.938C173.829 220.038 173.809 220.137 173.771 220.23C173.733 220.323 173.677 220.406 173.606 220.477C173.535 220.548 173.451 220.604 173.359 220.642C173.266 220.68 173.167 220.7 173.067 220.699H160.786C160.687 220.699 160.588 220.679 160.497 220.64C160.405 220.602 160.321 220.546 160.251 220.475C160.181 220.404 160.126 220.321 160.088 220.228C160.05 220.136 160.031 220.038 160.031 219.938V213.848C160.031 213.749 160.051 213.651 160.089 213.559C160.127 213.468 160.183 213.385 160.253 213.315C160.323 213.245 160.406 213.19 160.498 213.152C160.589 213.115 160.687 213.095 160.786 213.096H173.064C173.163 213.095 173.262 213.114 173.354 213.151C173.446 213.189 173.53 213.244 173.601 213.314C173.671 213.384 173.728 213.467 173.766 213.558C173.805 213.65 173.825 213.748 173.825 213.848L173.828 219.938ZM190.024 219.938C190.025 220.037 190.006 220.136 189.969 220.228C189.931 220.32 189.876 220.404 189.806 220.475C189.736 220.546 189.653 220.602 189.561 220.64C189.47 220.679 189.371 220.699 189.272 220.699H176.989C176.888 220.7 176.789 220.68 176.697 220.642C176.604 220.604 176.52 220.548 176.449 220.477C176.379 220.406 176.322 220.323 176.284 220.23C176.246 220.137 176.227 220.038 176.227 219.938V213.848C176.228 213.748 176.248 213.65 176.286 213.558C176.325 213.467 176.381 213.384 176.452 213.314C176.522 213.244 176.606 213.189 176.698 213.151C176.791 213.114 176.889 213.095 176.989 213.096H189.269C189.468 213.096 189.659 213.175 189.801 213.316C189.942 213.457 190.021 213.648 190.021 213.848L190.024 219.938ZM201.393 197.072C201.396 198.015 201.212 198.951 200.852 199.824C200.493 200.696 199.965 201.49 199.298 202.158C198.631 202.826 197.839 203.357 196.968 203.718C196.096 204.08 195.161 204.266 194.217 204.266H134.263C132.355 204.265 130.526 203.507 129.177 202.158C127.828 200.809 127.069 198.98 127.069 197.072V171.703C127.069 169.795 127.827 167.965 129.176 166.615C130.525 165.266 132.355 164.508 134.263 164.508H194.205C195.149 164.508 196.083 164.695 196.955 165.056C197.827 165.418 198.619 165.948 199.286 166.616C199.952 167.285 200.48 168.078 200.84 168.951C201.199 169.824 201.383 170.759 201.381 171.703L201.393 197.072ZM200.342 156.106C200.012 156.441 199.618 156.706 199.184 156.886C198.75 157.067 198.285 157.159 197.815 157.158H131.212C130.263 157.157 129.353 156.779 128.683 156.108C128.011 155.437 127.634 154.528 127.633 153.579C127.637 152.631 128.015 151.722 128.685 151.052C129.355 150.382 130.264 150.003 131.212 150H197.808C198.278 150 198.744 150.092 199.178 150.272C199.613 150.451 200.007 150.715 200.34 151.047C200.672 151.38 200.936 151.775 201.115 152.209C201.295 152.643 201.388 153.109 201.387 153.579C201.389 154.048 201.297 154.514 201.117 154.948C200.937 155.382 200.672 155.776 200.339 156.106H200.342ZM117.088 276.981V268.916V276.981Z" stroke="#CCDDE2" stroke-width="3.7" stroke-miterlimit="10"/>
<path d="M140.665 220.699H128.384C128.285 220.699 128.186 220.679 128.095 220.64C128.003 220.602 127.92 220.546 127.85 220.475C127.78 220.404 127.725 220.32 127.688 220.228C127.65 220.136 127.632 220.038 127.632 219.938V213.848C127.632 213.649 127.712 213.457 127.853 213.316C127.994 213.175 128.185 213.096 128.384 213.096H140.665C140.764 213.095 140.863 213.114 140.955 213.152C141.047 213.189 141.131 213.244 141.202 213.314C141.272 213.384 141.329 213.467 141.367 213.558C141.406 213.65 141.426 213.748 141.426 213.848V219.938C141.426 220.038 141.407 220.138 141.369 220.23C141.331 220.323 141.275 220.407 141.204 220.477C141.133 220.548 141.049 220.604 140.957 220.642C140.864 220.68 140.765 220.7 140.665 220.699Z" stroke="#CCDDE2" stroke-width="3.7" stroke-miterlimit="10"/>
<path d="M136.931 223.735H149.211C149.411 223.735 149.604 223.814 149.746 223.955C149.889 224.096 149.97 224.287 149.972 224.487V230.584C149.971 230.784 149.89 230.976 149.747 231.118C149.605 231.259 149.412 231.339 149.211 231.339H136.931C136.73 231.339 136.537 231.259 136.395 231.118C136.252 230.976 136.171 230.784 136.17 230.584V224.487C136.172 224.287 136.253 224.096 136.396 223.955C136.538 223.814 136.731 223.735 136.931 223.735Z" stroke="#CCDDE2" stroke-width="3.7" stroke-miterlimit="10"/>
<path d="M157.631 213.848V219.938C157.631 220.14 157.55 220.333 157.407 220.475C157.265 220.618 157.072 220.698 156.87 220.699H144.59C144.49 220.7 144.39 220.68 144.298 220.642C144.205 220.604 144.121 220.548 144.05 220.477C143.98 220.407 143.923 220.323 143.885 220.23C143.847 220.138 143.828 220.038 143.828 219.938V213.848C143.829 213.748 143.849 213.65 143.887 213.558C143.926 213.467 143.982 213.384 144.053 213.314C144.123 213.244 144.207 213.189 144.299 213.152C144.392 213.114 144.49 213.095 144.59 213.096H156.87C157.07 213.096 157.262 213.175 157.405 213.316C157.548 213.456 157.629 213.648 157.631 213.848Z" stroke="#CCDDE2" stroke-width="3.7" stroke-miterlimit="10"/>
<path d="M165.36 223.735H153.07C152.655 223.735 152.318 224.072 152.318 224.487V230.587C152.318 231.002 152.655 231.339 153.07 231.339H165.36C165.775 231.339 166.112 231.002 166.112 230.587V224.487C166.112 224.072 165.775 223.735 165.36 223.735Z" stroke="#CCDDE2" stroke-width="3.7" stroke-miterlimit="10"/>
<path d="M160.787 220.699C160.687 220.699 160.589 220.679 160.497 220.64C160.405 220.602 160.322 220.546 160.252 220.475C160.181 220.405 160.126 220.321 160.088 220.229C160.05 220.136 160.031 220.038 160.032 219.938V213.848C160.032 213.749 160.051 213.651 160.089 213.559C160.127 213.468 160.183 213.385 160.253 213.315C160.323 213.245 160.406 213.19 160.498 213.152C160.59 213.115 160.688 213.096 160.787 213.096H173.064C173.163 213.095 173.262 213.114 173.354 213.152C173.446 213.189 173.53 213.244 173.601 213.314C173.671 213.384 173.727 213.467 173.766 213.558C173.805 213.65 173.825 213.748 173.825 213.848V219.938C173.825 220.038 173.806 220.138 173.768 220.23C173.73 220.323 173.674 220.407 173.603 220.477C173.532 220.548 173.448 220.604 173.356 220.642C173.263 220.68 173.164 220.7 173.064 220.699H160.787Z" stroke="#CCDDE2" stroke-width="3.7" stroke-miterlimit="10"/>
<path d="M176.988 220.699C176.887 220.7 176.788 220.68 176.696 220.642C176.603 220.604 176.519 220.548 176.448 220.477C176.378 220.407 176.321 220.323 176.283 220.23C176.245 220.138 176.226 220.038 176.226 219.938V213.848C176.227 213.748 176.247 213.65 176.285 213.558C176.324 213.467 176.38 213.384 176.451 213.314C176.521 213.244 176.605 213.189 176.697 213.152C176.789 213.114 176.888 213.095 176.988 213.096H189.268C189.467 213.096 189.659 213.175 189.8 213.316C189.941 213.457 190.02 213.649 190.02 213.848V219.938C190.021 220.038 190.002 220.136 189.965 220.228C189.927 220.32 189.872 220.404 189.802 220.475C189.732 220.546 189.649 220.602 189.558 220.64C189.466 220.679 189.368 220.699 189.268 220.699H176.988Z" stroke="#CCDDE2" stroke-width="3.7" stroke-miterlimit="10"/>
<path d="M195.387 247.369V294.896H133.636V247.369C133.641 245.464 134.401 243.639 135.75 242.294C137.098 240.949 138.926 240.193 140.831 240.193H188.192C190.098 240.192 191.925 240.947 193.274 242.293C194.623 243.638 195.383 245.464 195.387 247.369Z" stroke="#CCDDE2" stroke-width="3.7" stroke-miterlimit="10"/>
<path d="M127.632 153.579C127.636 152.631 128.014 151.722 128.684 151.052C129.355 150.381 130.263 150.003 131.211 150H197.807C198.278 150 198.743 150.092 199.177 150.272C199.612 150.451 200.006 150.715 200.339 151.047C200.671 151.38 200.935 151.774 201.115 152.209C201.294 152.643 201.386 153.109 201.386 153.579C201.383 154.527 201.005 155.435 200.334 156.105C199.664 156.776 198.756 157.154 197.807 157.158H131.211C130.262 157.157 129.352 156.779 128.682 156.108C128.01 155.437 127.633 154.528 127.632 153.579Z" stroke="#CCDDE2" stroke-width="3.7" stroke-miterlimit="10"/>
<path d="M160.643 175.25V193.555C160.643 194.221 160.513 194.88 160.259 195.495C160.005 196.109 159.633 196.668 159.163 197.139C158.693 197.61 158.135 197.983 157.52 198.239C156.906 198.493 156.247 198.625 155.582 198.625H137.833C136.489 198.624 135.201 198.089 134.253 197.138C133.304 196.187 132.771 194.899 132.772 193.555V175.25C132.771 174.586 132.902 173.927 133.156 173.312C133.41 172.698 133.783 172.139 134.253 171.669C134.723 171.198 135.281 170.825 135.895 170.57C136.509 170.315 137.167 170.184 137.833 170.184H155.582C156.247 170.184 156.906 170.315 157.52 170.569C158.135 170.824 158.693 171.197 159.163 171.668C159.633 172.139 160.005 172.697 160.259 173.312C160.513 173.927 160.643 174.585 160.643 175.25Z" stroke="#CCDDE2" stroke-width="3.7" stroke-miterlimit="10"/>
<path d="M195.496 175.229V193.58C195.497 194.246 195.367 194.905 195.113 195.519C194.859 196.134 194.487 196.693 194.017 197.164C193.546 197.635 192.988 198.008 192.374 198.264C191.76 198.518 191.101 198.65 190.436 198.65H172.652C171.986 198.65 171.327 198.518 170.713 198.264C170.098 198.008 169.54 197.635 169.07 197.164C168.6 196.693 168.227 196.134 167.972 195.519C167.718 194.905 167.587 194.246 167.588 193.58V175.229C167.587 174.563 167.718 173.904 167.972 173.289C168.227 172.675 168.6 172.116 169.07 171.645C169.54 171.174 170.098 170.8 170.713 170.545C171.327 170.291 171.986 170.159 172.652 170.159H190.436C191.101 170.159 191.76 170.291 192.374 170.545C192.988 170.801 193.546 171.174 194.017 171.645C194.487 172.116 194.859 172.675 195.113 173.289C195.367 173.904 195.497 174.563 195.496 175.229Z" stroke="#CCDDE2" stroke-width="3.7" stroke-miterlimit="10"/>
<path d="M194.204 164.508H134.263C132.355 164.508 130.525 165.266 129.175 166.615C127.826 167.965 127.068 169.795 127.068 171.703V197.072C127.069 198.98 127.827 200.809 129.176 202.158C130.526 203.507 132.355 204.265 134.263 204.266H194.204C195.148 204.266 196.083 204.08 196.955 203.718C197.827 203.356 198.619 202.826 199.285 202.158C199.952 201.49 200.48 200.696 200.839 199.824C201.199 198.951 201.383 198.015 201.38 197.072V171.703C201.383 170.759 201.199 169.824 200.839 168.951C200.48 168.078 199.952 167.285 199.285 166.616C198.619 165.948 197.827 165.418 196.955 165.056C196.083 164.694 195.148 164.508 194.204 164.508ZM160.643 193.555C160.643 194.221 160.513 194.88 160.259 195.494C160.005 196.109 159.633 196.668 159.163 197.139C158.693 197.61 158.134 197.983 157.52 198.238C156.906 198.493 156.247 198.625 155.582 198.625H137.832C136.489 198.624 135.201 198.088 134.252 197.138C133.303 196.187 132.771 194.899 132.772 193.555V175.25C132.771 174.585 132.902 173.927 133.156 173.312C133.41 172.698 133.782 172.139 134.252 171.669C134.722 171.198 135.28 170.825 135.894 170.57C136.509 170.315 137.167 170.184 137.832 170.184H155.582C156.247 170.184 156.905 170.315 157.52 170.569C158.134 170.824 158.692 171.197 159.162 171.668C159.632 172.139 160.005 172.697 160.259 173.312C160.513 173.926 160.643 174.585 160.643 175.25V193.555ZM195.496 193.58C195.497 194.246 195.367 194.905 195.113 195.519C194.859 196.134 194.486 196.693 194.016 197.164C193.546 197.635 192.988 198.008 192.374 198.263C191.759 198.518 191.101 198.65 190.435 198.65H172.651C171.986 198.65 171.327 198.518 170.713 198.263C170.098 198.008 169.54 197.635 169.069 197.164C168.599 196.693 168.226 196.134 167.972 195.519C167.718 194.905 167.587 194.246 167.588 193.58V175.229C167.587 174.563 167.718 173.904 167.972 173.289C168.226 172.674 168.599 172.115 169.069 171.645C169.54 171.174 170.098 170.8 170.713 170.545C171.327 170.29 171.986 170.159 172.651 170.159H190.435C191.101 170.159 191.759 170.29 192.374 170.545C192.988 170.8 193.546 171.174 194.016 171.645C194.486 172.116 194.859 172.675 195.113 173.289C195.367 173.904 195.497 174.563 195.496 175.229V193.58Z" stroke="#CCDDE2" stroke-width="3.7" stroke-miterlimit="10"/>
<path d="M160.643 175.25V193.555C160.643 194.221 160.513 194.88 160.259 195.495C160.005 196.109 159.633 196.668 159.163 197.139C158.693 197.61 158.135 197.983 157.52 198.239C156.906 198.493 156.247 198.625 155.582 198.625H137.833C136.489 198.624 135.201 198.089 134.253 197.138C133.304 196.187 132.771 194.899 132.772 193.555V175.25C132.771 174.586 132.902 173.927 133.156 173.312C133.41 172.698 133.783 172.139 134.253 171.669C134.723 171.198 135.281 170.825 135.895 170.57C136.509 170.315 137.167 170.184 137.833 170.184H155.582C156.247 170.184 156.906 170.315 157.52 170.569C158.135 170.824 158.693 171.197 159.163 171.668C159.633 172.139 160.005 172.697 160.259 173.312C160.513 173.927 160.643 174.585 160.643 175.25Z" stroke="#CCDDE2" stroke-width="3.7" stroke-miterlimit="10"/>
<path d="M195.496 175.229V193.58C195.497 194.246 195.367 194.905 195.113 195.519C194.859 196.134 194.487 196.693 194.017 197.164C193.546 197.635 192.988 198.008 192.374 198.264C191.76 198.518 191.101 198.65 190.436 198.65H172.652C171.986 198.65 171.327 198.518 170.713 198.264C170.098 198.008 169.54 197.635 169.07 197.164C168.6 196.693 168.227 196.134 167.972 195.519C167.718 194.905 167.587 194.246 167.588 193.58V175.229C167.587 174.563 167.718 173.904 167.972 173.289C168.227 172.675 168.6 172.116 169.07 171.645C169.54 171.174 170.098 170.8 170.713 170.545C171.327 170.291 171.986 170.159 172.652 170.159H190.436C191.101 170.159 191.76 170.291 192.374 170.545C192.988 170.801 193.546 171.174 194.017 171.645C194.487 172.116 194.859 172.675 195.113 173.289C195.367 173.904 195.497 174.563 195.496 175.229Z" stroke="#CCDDE2" stroke-width="3.7" stroke-miterlimit="10"/>
<path d="M195.496 175.229V193.58C195.497 194.246 195.367 194.905 195.113 195.519C194.859 196.134 194.487 196.693 194.017 197.164C193.546 197.635 192.988 198.008 192.374 198.264C191.76 198.518 191.101 198.65 190.436 198.65H172.652C171.986 198.65 171.327 198.518 170.713 198.264C170.098 198.008 169.54 197.635 169.07 197.164C168.6 196.693 168.227 196.134 167.972 195.519C167.718 194.905 167.587 194.246 167.588 193.58V175.229C167.587 174.563 167.718 173.904 167.972 173.289C168.227 172.675 168.6 172.116 169.07 171.645C169.54 171.174 170.098 170.8 170.713 170.545C171.327 170.291 171.986 170.159 172.652 170.159H190.436C191.101 170.159 191.76 170.291 192.374 170.545C192.988 170.801 193.546 171.174 194.017 171.645C194.487 172.116 194.859 172.675 195.113 173.289C195.367 173.904 195.497 174.563 195.496 175.229Z" stroke="#CCDDE2" stroke-width="3.7" stroke-miterlimit="10"/>
<path d="M160.643 175.25V193.555C160.643 194.221 160.513 194.88 160.259 195.495C160.005 196.109 159.633 196.668 159.163 197.139C158.693 197.61 158.135 197.983 157.52 198.239C156.906 198.493 156.247 198.625 155.582 198.625H137.833C136.489 198.624 135.201 198.089 134.253 197.138C133.304 196.187 132.771 194.899 132.772 193.555V175.25C132.771 174.586 132.902 173.927 133.156 173.312C133.41 172.698 133.783 172.139 134.253 171.669C134.723 171.198 135.281 170.825 135.895 170.57C136.509 170.315 137.167 170.184 137.833 170.184H155.582C156.247 170.184 156.906 170.315 157.52 170.569C158.135 170.824 158.693 171.197 159.163 171.668C159.633 172.139 160.005 172.697 160.259 173.312C160.513 173.927 160.643 174.585 160.643 175.25Z" stroke="#CCDDE2" stroke-width="3.7" stroke-miterlimit="10"/>
<path d="M195.387 247.369V294.896H133.636V247.369C133.641 245.464 134.401 243.639 135.75 242.294C137.098 240.949 138.926 240.193 140.831 240.193H188.192C190.098 240.192 191.925 240.947 193.274 242.293C194.623 243.638 195.383 245.464 195.387 247.369Z" stroke="#CCDDE2" stroke-width="3.7" stroke-miterlimit="10"/>
<path d="M141.426 213.848V219.938C141.426 220.038 141.407 220.138 141.369 220.23C141.331 220.323 141.275 220.407 141.204 220.477C141.133 220.548 141.049 220.604 140.957 220.642C140.864 220.68 140.765 220.7 140.665 220.699H128.384C128.285 220.699 128.186 220.679 128.095 220.64C128.003 220.602 127.92 220.546 127.85 220.475C127.78 220.404 127.725 220.32 127.688 220.228C127.65 220.136 127.632 220.038 127.632 219.938V213.848C127.632 213.649 127.712 213.457 127.853 213.316C127.994 213.175 128.185 213.096 128.384 213.096H140.665C140.764 213.095 140.863 213.114 140.955 213.152C141.047 213.189 141.131 213.244 141.202 213.314C141.272 213.384 141.329 213.467 141.367 213.558C141.406 213.65 141.426 213.748 141.426 213.848Z" stroke="#CCDDE2" stroke-width="3.7" stroke-miterlimit="10"/>
<path d="M157.631 213.848V219.938C157.631 220.14 157.55 220.333 157.407 220.475C157.265 220.618 157.072 220.698 156.87 220.699H144.59C144.49 220.7 144.39 220.68 144.298 220.642C144.205 220.604 144.121 220.548 144.05 220.477C143.98 220.407 143.923 220.323 143.885 220.23C143.847 220.138 143.828 220.038 143.828 219.938V213.848C143.829 213.748 143.849 213.65 143.887 213.558C143.926 213.467 143.982 213.384 144.053 213.314C144.123 213.244 144.207 213.189 144.299 213.152C144.392 213.114 144.49 213.095 144.59 213.096H156.87C157.07 213.096 157.262 213.175 157.405 213.316C157.548 213.456 157.629 213.648 157.631 213.848Z" stroke="#CCDDE2" stroke-width="3.7" stroke-miterlimit="10"/>
<path d="M173.825 213.848V219.938C173.825 220.038 173.806 220.138 173.768 220.23C173.73 220.323 173.674 220.407 173.603 220.477C173.532 220.548 173.448 220.604 173.356 220.642C173.263 220.68 173.164 220.7 173.064 220.699H160.787C160.687 220.699 160.589 220.679 160.497 220.64C160.405 220.602 160.322 220.546 160.252 220.475C160.181 220.405 160.126 220.321 160.088 220.229C160.05 220.136 160.031 220.038 160.032 219.938V213.848C160.032 213.749 160.051 213.651 160.089 213.559C160.127 213.468 160.183 213.385 160.253 213.315C160.323 213.245 160.406 213.19 160.498 213.152C160.59 213.115 160.688 213.096 160.787 213.096H173.064C173.163 213.095 173.262 213.114 173.354 213.152C173.446 213.189 173.53 213.244 173.601 213.314C173.671 213.384 173.727 213.467 173.766 213.558C173.805 213.65 173.825 213.748 173.825 213.848Z" stroke="#CCDDE2" stroke-width="3.7" stroke-miterlimit="10"/>
<path d="M190.007 213.848V219.938C190.008 220.038 189.989 220.136 189.952 220.228C189.915 220.32 189.859 220.404 189.79 220.475C189.72 220.546 189.637 220.602 189.545 220.64C189.453 220.679 189.355 220.699 189.255 220.699H176.988C176.887 220.7 176.788 220.68 176.696 220.642C176.603 220.604 176.519 220.548 176.448 220.477C176.378 220.407 176.321 220.323 176.283 220.23C176.245 220.138 176.226 220.038 176.226 219.938V213.848C176.227 213.748 176.247 213.65 176.285 213.558C176.324 213.467 176.38 213.384 176.451 213.314C176.521 213.244 176.605 213.189 176.697 213.152C176.789 213.114 176.888 213.095 176.988 213.096H189.268C189.465 213.099 189.653 213.18 189.791 213.321C189.93 213.461 190.007 213.651 190.007 213.848Z" stroke="#CCDDE2" stroke-width="3.7" stroke-miterlimit="10"/>
<path d="M149.972 224.487V230.584C149.971 230.784 149.89 230.976 149.747 231.118C149.605 231.259 149.412 231.339 149.211 231.339H136.931C136.73 231.339 136.537 231.259 136.395 231.118C136.252 230.976 136.171 230.784 136.17 230.584V224.487C136.172 224.287 136.253 224.096 136.396 223.955C136.538 223.814 136.731 223.735 136.931 223.735H149.211C149.411 223.735 149.604 223.814 149.746 223.955C149.889 224.096 149.97 224.287 149.972 224.487Z" stroke="#CCDDE2" stroke-width="3.7" stroke-miterlimit="10"/>
<path d="M165.36 223.735H153.07C152.655 223.735 152.318 224.072 152.318 224.487V230.587C152.318 231.002 152.655 231.339 153.07 231.339H165.36C165.775 231.339 166.112 231.002 166.112 230.587V224.487C166.112 224.072 165.775 223.735 165.36 223.735Z" stroke="#CCDDE2" stroke-width="3.7" stroke-miterlimit="10"/>
<path d="M201.389 153.579C201.386 154.527 201.007 155.436 200.336 156.107C199.665 156.777 198.756 157.155 197.807 157.158H131.211C130.262 157.157 129.352 156.779 128.682 156.108C128.01 155.437 127.633 154.528 127.632 153.579C127.636 152.631 128.014 151.722 128.684 151.052C129.355 150.382 130.263 150.003 131.211 150H197.807C198.278 149.999 198.744 150.091 199.178 150.271C199.613 150.45 200.008 150.714 200.341 151.046C200.673 151.379 200.937 151.773 201.117 152.208C201.297 152.643 201.389 153.108 201.389 153.579Z" stroke="#CCDDE2" stroke-width="3.7" stroke-miterlimit="10"/>
<path d="M187.999 245.691H140.841C139.722 245.691 138.816 246.597 138.816 247.716V247.794C138.816 248.912 139.722 249.818 140.841 249.818H187.999C189.118 249.818 190.024 248.912 190.024 247.794V247.716C190.024 246.597 189.118 245.691 187.999 245.691Z" stroke="#CCDDE2" stroke-width="3.7" stroke-miterlimit="10"/>
<path d="M187.999 254.208H140.841C139.722 254.208 138.816 255.115 138.816 256.233V256.311C138.816 257.429 139.722 258.336 140.841 258.336H187.999C189.118 258.336 190.024 257.429 190.024 256.311V256.233C190.024 255.115 189.118 254.208 187.999 254.208Z" stroke="#CCDDE2" stroke-width="3.7" stroke-miterlimit="10"/>
<path d="M187.999 262.726H140.841C139.722 262.726 138.816 263.633 138.816 264.751V264.829C138.816 265.947 139.722 266.854 140.841 266.854H187.999C189.118 266.854 190.024 265.947 190.024 264.829V264.751C190.024 263.633 189.118 262.726 187.999 262.726Z" stroke="#CCDDE2" stroke-width="3.7" stroke-miterlimit="10"/>
<path d="M187.999 271.247H140.841C139.722 271.247 138.816 272.153 138.816 273.271V273.349C138.816 274.468 139.722 275.374 140.841 275.374H187.999C189.118 275.374 190.024 274.468 190.024 273.349V273.271C190.024 272.153 189.118 271.247 187.999 271.247Z" stroke="#CCDDE2" stroke-width="3.7" stroke-miterlimit="10"/>
<path d="M187.999 279.764H140.841C139.722 279.764 138.816 280.671 138.816 281.789V281.867C138.816 282.985 139.722 283.892 140.841 283.892H187.999C189.118 283.892 190.024 282.985 190.024 281.867V281.789C190.024 280.671 189.118 279.764 187.999 279.764Z" stroke="#CCDDE2" stroke-width="3.7" stroke-miterlimit="10"/>
<path d="M108.38 126.048H228.837C230.725 126.048 232.536 126.798 233.871 128.133C235.206 129.468 235.957 131.28 235.957 133.168V140.032H101.26V133.168C101.26 131.28 102.01 129.468 103.345 128.133C104.68 126.798 106.492 126.048 108.38 126.048Z" stroke="#CCDDE2" stroke-width="3.7" stroke-miterlimit="10"/>
<path d="M223.098 237.217H236.049V249.001H248.339V262.536H260.308V273.134H272.086V282.46H296.4V294.89H223.098V237.217Z" stroke="#CCDDE2" stroke-width="3.7" stroke-miterlimit="10"/>
<path d="M225.542 211.124H236.134H236.456L248.359 223.03L260.358 235.026L272.089 246.758L277.637 252.305" stroke="#CCDDE2" stroke-width="3.7" stroke-miterlimit="10"/>
<path d="M236.134 249.001V211.124" stroke="#CCDDE2" stroke-width="3.7" stroke-miterlimit="10"/>
<path d="M272.088 273.137V246.758" stroke="#CCDDE2" stroke-width="3.7" stroke-miterlimit="10"/>
<path d="M248.358 254.305V223.027" stroke="#CCDDE2" stroke-width="3.7" stroke-miterlimit="10"/>
<path d="M260.308 235.026V263.571" stroke="#CCDDE2" stroke-width="3.7" stroke-miterlimit="10"/>
<path d="M117.04 268.985V276.981" stroke="#CCDDE2" stroke-width="3.7" stroke-miterlimit="10"/>
<path d="M105.19 276.981V272.064C105.693 273.505 107.043 274.763 108.784 275.384C108.22 271.265 107.115 264.776 105.19 258.969" stroke="#CCDDE2" stroke-width="3.7" stroke-miterlimit="10"/>
<path d="M117.04 252.97V184.392H105.19V249.887" stroke="#CCDDE2" stroke-width="3.7" stroke-miterlimit="10"/>
<path d="M105.19 272.07V276.981" stroke="#CCDDE2" stroke-width="3.7" stroke-miterlimit="10"/>
<path d="M105.191 249.887V184.392H31.4277V294.896H104.233H105.191" stroke="#CCDDE2" stroke-width="3.7" stroke-miterlimit="10"/>
<path d="M53.864 200.575V243.753C53.864 247.649 57.0221 250.807 60.9183 250.807H77.4543C81.3503 250.807 84.5086 247.649 84.5086 243.753V200.575C84.5086 196.679 81.3503 193.521 77.4543 193.521H60.9183C57.0221 193.521 53.864 196.679 53.864 200.575Z" stroke="#CCDDE2" stroke-width="3.7" stroke-miterlimit="10"/>
<path d="M58.222 203.034V214.615C58.222 217.36 60.4472 219.586 63.1921 219.586H75.2104C77.9554 219.586 80.1805 217.36 80.1805 214.615V203.034C80.1805 200.289 77.9554 198.064 75.2104 198.064H63.1921C60.4472 198.064 58.222 200.289 58.222 203.034Z" stroke="#CCDDE2" stroke-width="3.7" stroke-miterlimit="10"/>
<path d="M58.2416 229.894V241.441C58.2416 244.186 60.4668 246.411 63.2118 246.411H75.1926C77.9376 246.411 80.1628 244.186 80.1628 241.441V229.894C80.1628 227.149 77.9376 224.924 75.1926 224.924H63.2118C60.4668 224.924 58.2416 227.149 58.2416 229.894Z" stroke="#CCDDE2" stroke-width="3.7" stroke-miterlimit="10"/>
<path d="M55.0212 257.344H42.7159C42.3041 257.344 41.9702 257.678 41.9702 258.09V264.205C41.9702 264.617 42.3041 264.95 42.7159 264.95H55.0212C55.4327 264.95 55.7669 264.617 55.7669 264.205V258.09C55.7669 257.678 55.4327 257.344 55.0212 257.344Z" stroke="#CCDDE2" stroke-width="3.7" stroke-miterlimit="10"/>
<path d="M71.2206 257.344H58.9153C58.5035 257.344 58.1696 257.678 58.1696 258.09V264.205C58.1696 264.617 58.5035 264.95 58.9153 264.95H71.2206C71.6324 264.95 71.9663 264.617 71.9663 264.205V258.09C71.9663 257.678 71.6324 257.344 71.2206 257.344Z" stroke="#CCDDE2" stroke-width="3.7" stroke-miterlimit="10"/>
<path d="M87.4189 257.344H75.1137C74.7018 257.344 74.368 257.678 74.368 258.09V264.205C74.368 264.617 74.7018 264.95 75.1137 264.95H87.4189C87.8308 264.95 88.1646 264.617 88.1646 264.205V258.09C88.1646 257.678 87.8308 257.344 87.4189 257.344Z" stroke="#CCDDE2" stroke-width="3.7" stroke-miterlimit="10"/>
<path d="M63.5632 267.986H51.2579C50.846 267.986 50.5122 268.32 50.5122 268.732V274.847C50.5122 275.259 50.846 275.593 51.2579 275.593H63.5632C63.975 275.593 64.3088 275.259 64.3088 274.847V268.732C64.3088 268.32 63.975 267.986 63.5632 267.986Z" stroke="#CCDDE2" stroke-width="3.7" stroke-miterlimit="10"/>
<path d="M79.707 267.986H67.4017C66.9898 267.986 66.656 268.32 66.656 268.732V274.847C66.656 275.259 66.9898 275.593 67.4017 275.593H79.707C80.1188 275.593 80.4526 275.259 80.4526 274.847V268.732C80.4526 268.32 80.1188 267.986 79.707 267.986Z" stroke="#CCDDE2" stroke-width="3.7" stroke-miterlimit="10"/>
<path d="M22.8571 170.299H117.081V184.273H15.6V177.559C15.6008 175.634 16.3656 173.789 17.7263 172.427C19.0869 171.066 20.9324 170.301 22.8571 170.299Z" stroke="#CCDDE2" stroke-width="3.7" stroke-miterlimit="10"/>
<path d="M111.228 262.099C111.874 261.575 112.623 261.091 113.141 260.514C114.595 258.888 114.036 256.81 114.969 255.026C116.105 252.842 119.674 251.328 123.184 251.528C122.852 252.555 122.624 253.613 122.504 254.686C122.401 255.64 122.651 256.701 122.376 257.628C121.93 259.113 119.546 260.015 119.256 261.54C119 262.888 120.579 264.149 120.317 265.521C120.039 266.994 117.777 267.808 116.944 269.109C116.264 270.17 116.585 271.381 116.233 272.507C115.805 273.867 114.326 275.069 112.389 275.627L112.196 275.683C111.484 275.073 110.873 274.353 110.386 273.552" stroke="#CCDDE2" stroke-width="3.7" stroke-miterlimit="10"/>
<path d="M121.057 253.238C115.824 258.576 113.363 269.83 112.405 275.633C112.327 276.123 112.255 276.569 112.196 276.978" stroke="#CCDDE2" stroke-width="3.7" stroke-miterlimit="10"/>
<path d="M121.524 280.248L119.115 293.707C119.049 294.085 118.851 294.427 118.557 294.674C118.263 294.92 117.892 295.055 117.509 295.055H104.926C104.538 295.055 104.164 294.917 103.869 294.667C103.574 294.416 103.378 294.068 103.316 293.686L101.088 280.248H121.524Z" stroke="#CCDDE2" stroke-width="3.7" stroke-miterlimit="10"/>
<path d="M123.811 278.747C123.777 279.156 123.591 279.537 123.289 279.815C122.988 280.093 122.592 280.248 122.182 280.248H100.464C100.057 280.248 99.6656 280.096 99.3648 279.823C99.064 279.55 98.8765 279.174 98.8385 278.769C98.8166 278.542 98.8425 278.314 98.9143 278.097C98.986 277.882 99.1021 277.683 99.2553 277.514C99.4082 277.346 99.5947 277.211 99.8028 277.118C100.011 277.026 100.236 276.978 100.464 276.978H122.17C122.397 276.976 122.622 277.022 122.83 277.112C123.038 277.202 123.226 277.335 123.38 277.501C123.534 277.668 123.652 277.864 123.727 278.079C123.801 278.293 123.829 278.521 123.811 278.747Z" stroke="#CCDDE2" stroke-width="3.7" stroke-miterlimit="10"/>
<path d="M105.191 272.064C105.155 271.962 105.123 271.858 105.098 271.752C104.752 270.448 105.06 269.034 104.408 267.811C103.606 266.304 101.441 265.362 101.167 263.652C100.923 262.068 102.44 260.601 102.187 259.038C101.912 257.275 99.6222 256.23 99.1886 254.505C98.9296 253.438 99.1667 252.205 99.0731 251.098C98.9567 249.862 98.7355 248.639 98.4117 247.441C101.001 247.263 103.622 248.258 105.191 249.875C105.662 250.341 106.04 250.893 106.305 251.5C107.201 253.562 106.667 255.971 108.065 257.856C108.826 258.876 110.09 259.637 110.739 260.704C110.956 261.053 111.108 261.437 111.188 261.84C111.191 261.869 111.197 261.898 111.204 261.927C111.219 261.983 111.226 262.036 111.235 262.083C111.469 263.662 110.867 265.372 111.06 266.997C111.235 268.345 111.965 269.696 111.547 271.013C111.254 271.898 110.865 272.749 110.386 273.549C109.998 274.239 109.521 274.875 108.967 275.44C108.904 275.424 108.848 275.399 108.786 275.377C108.221 271.259 107.116 264.769 105.191 258.963" stroke="#CCDDE2" stroke-width="3.7" stroke-miterlimit="10"/>
<path d="M108.991 276.975C108.935 276.494 108.863 275.97 108.785 275.39C108.22 271.272 107.116 264.782 105.191 258.976C103.977 255.278 102.429 251.843 100.476 249.441" stroke="#CCDDE2" stroke-width="3.7" stroke-miterlimit="10"/>
<path d="M108.064 257.865C108.064 257.865 108.41 252.492 111.309 250.857C114.207 249.222 114.145 258.383 114.145 258.383" stroke="#CCDDE2" stroke-width="3.7" stroke-miterlimit="10"/>
<path d="M111.228 262.099C110.9 260.059 111.053 257.972 111.674 256.002" stroke="#CCDDE2" stroke-width="3.7" stroke-miterlimit="10"/>
<path d="M154.882 161.582C155.285 162.018 155.517 162.584 155.537 163.178C155.557 163.771 155.364 164.352 154.992 164.814L147.781 177.216L147.529 179.712L145.285 202.254L141.722 238.056C141.7 238.284 141.654 238.512 141.613 238.739C141.591 238.92 141.566 239.101 141.535 239.282C141.488 239.516 141.432 239.738 141.379 239.962C141.326 240.187 141.292 240.334 141.236 240.515C141.179 240.696 141.105 240.945 141.027 241.157L140.836 241.691C140.752 241.903 140.665 242.106 140.577 242.315C140.49 242.524 140.412 242.655 140.328 242.826C140.243 242.998 140.131 243.22 140.016 243.407C139.9 243.594 139.825 243.738 139.725 243.894C139.626 244.05 139.498 244.262 139.37 244.443C139.242 244.624 139.151 244.755 139.042 244.898C138.805 245.21 138.571 245.503 138.312 245.784C138.178 245.94 138.038 246.096 137.897 246.246C137.757 246.396 137.585 246.536 137.442 246.68C137.298 246.823 137.158 246.945 137.008 247.07C136.858 247.194 136.696 247.338 136.524 247.463C136.353 247.588 136.212 247.706 136.053 247.815C135.894 247.925 135.713 248.052 135.542 248.171C135.37 248.29 135.205 248.38 135.033 248.483C134.861 248.586 134.677 248.689 134.499 248.795C134.322 248.901 134.138 248.976 133.95 249.06C133.763 249.144 133.588 249.241 133.401 249.319C133.214 249.397 132.999 249.478 132.796 249.547C132.593 249.616 132.434 249.687 132.253 249.744C131.91 249.853 131.557 249.946 131.202 250.027C130.999 250.074 130.802 250.112 130.599 250.143C130.397 250.174 130.206 250.221 130.004 250.255H130.035L132.818 256.183L135.423 256.208C134.582 256.327 133.732 256.364 132.883 256.317L137.008 265.113C137.67 266.523 137.966 268.078 137.867 269.633C137.769 271.188 137.279 272.693 136.444 274.008C135.609 275.324 134.455 276.407 133.09 277.158C131.725 277.909 130.192 278.303 128.634 278.304H123.642C123.449 278.304 123.257 278.343 123.079 278.417C122.901 278.492 122.739 278.601 122.603 278.738C122.467 278.875 122.359 279.037 122.285 279.216C122.212 279.395 122.175 279.587 122.175 279.78V280.51C123.88 281.087 125.323 282.251 126.249 283.794C127.174 285.337 127.521 287.159 127.229 288.934C126.936 290.709 126.022 292.323 124.651 293.487C123.279 294.651 121.538 295.29 119.739 295.29C117.94 295.29 116.199 294.651 114.827 293.487C113.455 292.323 112.542 290.709 112.249 288.934C111.956 287.159 112.304 285.337 113.229 283.794C114.155 282.251 115.598 281.087 117.302 280.51V279.78C117.303 279.586 117.265 279.394 117.191 279.215C117.117 279.036 117.009 278.873 116.872 278.736C116.735 278.599 116.573 278.491 116.394 278.416C116.215 278.342 116.023 278.304 115.829 278.304H60.7458C60.5523 278.304 60.3605 278.342 60.1817 278.416C60.0026 278.491 59.8404 278.599 59.7034 278.736C59.5667 278.873 59.4582 279.036 59.3845 279.215C59.3106 279.394 59.2728 279.586 59.2731 279.78V280.51C60.9798 281.087 62.4256 282.253 63.3528 283.797C64.2801 285.342 64.6286 287.166 64.336 288.944C64.043 290.721 63.1285 292.337 61.7548 293.503C60.3814 294.669 58.6382 295.309 56.8364 295.309C55.0349 295.309 53.2918 294.669 51.9181 293.503C50.5446 292.337 49.6298 290.721 49.3372 288.944C49.0445 287.166 49.3927 285.342 50.32 283.797C51.2472 282.253 52.6931 281.087 54.3997 280.51V279.78C54.3997 279.388 54.2443 279.013 53.9676 278.736C53.6908 278.459 53.3155 278.304 52.9239 278.304H44.3627C43.9689 278.303 43.5839 278.185 43.2569 277.966C42.93 277.746 42.675 277.435 42.525 277.07C42.3746 276.706 42.3359 276.306 42.413 275.92C42.49 275.533 42.68 275.178 42.9587 274.9C43.1427 274.715 43.3618 274.569 43.6026 274.469C43.8435 274.37 44.1018 274.319 44.3627 274.32H126.84C127.881 274.318 128.905 274.055 129.818 273.554C130.73 273.053 131.501 272.33 132.061 271.452C132.621 270.574 132.95 269.57 133.019 268.531C133.088 267.493 132.895 266.453 132.456 265.509L125.364 250.205L54.2874 244.458C54.2331 244.445 54.1779 244.437 54.122 244.433C53.81 244.402 53.498 244.361 53.186 244.308C53.0812 244.295 52.977 244.276 52.874 244.252C52.5215 244.19 52.1845 244.112 51.8444 244.025L51.5543 243.94C51.2423 243.844 50.9303 243.744 50.6183 243.628L50.3749 243.535C50.091 243.426 49.8102 243.301 49.5356 243.167C49.4192 243.118 49.3057 243.063 49.1955 243.001C48.9459 242.876 48.6963 242.742 48.453 242.592C46.4053 241.389 44.7074 239.672 43.5274 237.61C42.3474 235.549 41.7266 233.215 41.7263 230.839V200.029C41.7269 196.743 42.9125 193.567 45.0656 191.083C47.2187 188.6 50.1949 186.977 53.4481 186.51L142.477 173.718L151.248 161.572C151.482 161.325 151.764 161.128 152.077 160.994C152.39 160.86 152.727 160.791 153.067 160.792C153.408 160.793 153.744 160.863 154.057 160.999C154.369 161.135 154.65 161.333 154.882 161.582Z" fill="white"/>
<path d="M256.205 266.623C250.449 254.679 238.599 233.36 222.325 220.484L220.74 191.877C221.941 191.818 223.13 191.608 224.278 191.253C225.583 191.041 226.462 190.71 226.774 190.223C227.014 189.818 227.182 189.375 227.27 188.913C227.532 188.343 227.656 187.72 227.632 187.094C227.632 186.782 227.607 186.411 227.601 186.033C227.717 182.888 227.411 178.367 227.043 173.001C226.665 165.263 226.244 157.713 226.235 157.644V157.629C226.235 157.519 226.281 150.74 226.597 143.255C227.002 147.501 228.762 150.159 231.068 151.791C233.564 153.847 236.836 154.406 239.644 154.406C241.697 154.401 243.741 154.132 245.725 153.604C249.067 152.562 251.816 150.899 253.856 148.528C255.728 146.724 257.288 144.425 257.715 141.598C258.104 139.311 257.981 136.967 257.354 134.734C256.802 132.137 255.329 129.827 253.207 128.232C252.708 127.81 252.158 127.454 251.569 127.171C250.58 126.597 249.56 126.042 248.593 125.405C247.287 124.492 246.15 123.359 245.232 122.058C244.628 120.945 244.259 119.719 244.15 118.457C244.248 116.349 244.219 114.237 244.062 112.133C244.062 111.693 244.016 111.253 243.969 110.822C243.85 109.315 243.741 108.273 243.741 108.273C242.461 104.976 240.273 102.109 237.432 100.002C237.258 99.8618 237.08 99.7277 236.905 99.5935C234.411 97.7727 231.515 96.5805 228.462 96.1178C228.182 96.0773 227.898 96.0461 227.623 96.0242C226.722 95.8773 225.812 95.7962 224.899 95.7809C223.733 95.2926 222.732 94.4808 222.013 93.4409C221.382 92.2933 220.935 91.0544 220.687 89.7686C220.335 87.6658 220.304 85.1417 220.129 82.2307C220.156 79.3076 219.395 76.431 217.926 73.9034C217.92 73.8838 217.909 73.8657 217.895 73.8504C217.268 72.7971 216.508 71.8293 215.633 70.9706C213.115 67.9879 209.608 66.1222 205.246 67.211C205.206 67.211 205.165 67.236 205.118 67.2516C204.938 67.2516 204.76 67.2516 204.579 67.2828C204.574 67.2812 204.568 67.2812 204.563 67.2828C202.856 67.4248 201.202 67.9449 199.721 68.8054C199.176 69.1214 198.661 69.4868 198.183 69.8974C195.297 72.3934 193.64 76.2528 193.191 80.0748C193.169 80.2308 193.16 80.3868 193.153 80.5428C192.648 81.1521 192.349 81.9056 192.298 82.6956C192.249 83.4637 192.424 84.23 192.8 84.9011C193.178 85.5722 193.741 86.1198 194.423 86.477V86.6736C194.471 88.023 194.767 89.3521 195.294 90.5954C196.18 92.6983 197.765 95.0914 200.448 95.4751C200.545 95.4751 200.638 95.4907 200.722 95.5063L202.685 99.007L203.156 101.038L204.248 105.746L204.622 105.534C205.056 105.291 205.487 105.05 205.933 104.813L206.217 105.331C204.54 106.29 202.939 107.374 201.428 108.576C197.568 111.487 192.829 115.936 189.494 122.023C187.531 125.43 186.143 129.134 185.712 133.065C185.71 133.117 185.704 133.169 185.696 133.221C185.64 133.573 185.594 133.926 185.556 134.288V132.569C185.487 132.569 185.422 132.538 185.353 132.531V132.5C185.113 132.465 184.874 132.417 184.639 132.357L166.655 121.649C165.848 120.925 165.264 119.985 164.973 118.941C164.475 116.927 163.349 115.124 161.757 113.793C160.398 112.735 158.797 112.031 157.099 111.746C156.996 111.721 156.886 111.705 156.787 111.69C156.855 111.539 156.891 111.376 156.891 111.211C156.892 111.045 156.857 110.882 156.79 110.731C156.722 110.58 156.623 110.445 156.499 110.336C156.376 110.226 156.23 110.144 156.072 110.095L142.781 105.899C142.504 105.811 142.203 105.829 141.939 105.951C141.674 106.073 141.465 106.289 141.352 106.557L138.291 113.799C138.229 113.949 138.198 114.11 138.202 114.272C138.205 114.434 138.242 114.594 138.311 114.74C138.38 114.887 138.478 115.018 138.601 115.125C138.723 115.231 138.866 115.311 139.021 115.359L139.368 115.468V115.499L147.224 117.936L147.367 117.983C147.367 118.139 147.367 118.295 147.383 118.451C147.404 119.196 147.483 119.939 147.617 120.672C147.673 120.984 147.742 121.296 147.82 121.608C147.866 121.78 147.907 121.945 147.969 122.111L147.994 122.198C148.041 122.345 148.088 122.51 148.15 122.65C148.166 122.709 148.184 122.766 148.207 122.822C148.212 122.824 148.217 122.824 148.222 122.822C148.417 123.326 148.661 123.81 148.952 124.266C149.637 125.337 150.638 126.167 151.816 126.644C152.93 127.081 154.122 126.996 155.248 127.443C156.115 127.805 156.91 128.321 157.595 128.965L158.019 129.427C157.791 129.767 155.744 132.928 157.22 133.923L157.164 133.948L158.655 134.884L176.954 146.968C177.135 147.108 177.322 147.242 177.503 147.373L176.187 148.824C172.555 150.109 168.268 151.513 164.871 152.487C162.833 153.005 160.777 153.46 158.705 153.828C155.526 154.378 152.284 154.403 149.124 154.942C146.824 155.32 144.878 157.463 144.444 159.863C144.082 161.816 143.995 163.919 146.154 164.923C148.625 166.071 149.857 162.555 151.355 161.307C153.663 159.354 155.96 161.685 158.362 163.011C158.581 164.296 158.958 165.535 159.248 166.798C159.325 167.246 159.498 167.672 159.757 168.046C160.197 168.611 160.659 168.67 161.067 168.461L160.964 168.549C161.75 168.341 162.543 168.133 163.342 167.925C164.09 167.808 164.828 167.63 165.548 167.391C170.908 166.118 176.62 164.933 182.333 163.497H182.355C182.623 163.429 182.898 163.357 183.163 163.295C183.252 163.292 183.341 163.306 183.425 163.338C183.508 163.369 183.584 163.417 183.649 163.478C183.714 163.539 183.766 163.613 183.803 163.695C183.839 163.776 183.859 163.864 183.862 163.953C183.831 164.362 183.79 164.777 183.753 165.201C183.338 167.029 182.654 171.965 181.881 175.949C181.456 177.715 181.016 179.363 180.592 180.823C179.903 182.383 179.229 183.921 179.441 185.191C179.464 185.757 179.683 186.298 180.061 186.72C180.439 187.142 180.952 187.42 181.513 187.506L182.499 187.656C183.176 187.818 184.321 188.014 185.756 188.22C185.952 189.615 186.165 191.028 186.398 192.401L186.455 192.747C186.62 193.655 186.792 194.582 186.963 195.499V195.524V195.555L187.104 196.307L187.253 197.118L186.115 207.209L185.775 210.288L177.113 286.662L168.003 289.087L161.176 290.909C160.927 290.962 160.691 291.06 160.478 291.199C160.161 291.397 159.9 291.673 159.72 292.001C159.54 292.329 159.448 292.697 159.451 293.071C159.452 293.437 159.546 293.797 159.726 294.116C159.824 294.305 159.948 294.479 160.094 294.634C160.395 294.932 160.777 295.137 161.192 295.224C161.346 295.26 161.505 295.278 161.663 295.277H188.271L190.454 286.669L203.496 235.064L204.179 235.688C204.179 235.688 204.179 235.713 204.204 235.719V235.735L224.204 254.748L224.441 254.957L224.753 255.269L228.918 259.222L229.23 259.512L229.355 259.637C244.908 274.663 245.463 276.625 245.117 276.831H244.92L237.744 291.72C237.521 292.188 237.467 292.719 237.593 293.222C237.719 293.725 238.016 294.168 238.434 294.475L238.936 294.843C239.388 295.169 239.945 295.313 240.498 295.246C241.051 295.179 241.559 294.906 241.919 294.481L260.137 273.187C260.137 273.187 258.786 271.942 256.205 266.623ZM161.616 167.993C161.711 167.879 161.797 167.758 161.875 167.631C161.879 167.671 161.893 167.708 161.916 167.741L161.616 167.993ZM177.057 148.512C177.16 148.465 177.26 148.425 177.369 148.384L178.446 147.963L178.492 147.985C178.031 148.156 177.55 148.337 177.057 148.512ZM184.361 132.288C183.43 131.996 182.571 131.509 181.843 130.859L180.848 130.263L184.536 132.319C184.473 132.322 184.417 132.322 184.361 132.307V132.288Z" fill="white"/>
<path d="M179.45 148.172L178.907 147.969C178.868 147.949 178.831 147.925 178.795 147.901C175.959 146.066 173.743 143.476 171.85 140.725C169.853 137.82 163.001 134.831 160.786 132.079C159.366 130.338 157.881 128.335 155.707 127.468C154.587 127.028 153.389 127.112 152.275 126.669C151.096 126.195 150.095 125.363 149.414 124.291C149.118 123.834 148.87 123.348 148.674 122.841C148.65 122.783 148.63 122.723 148.615 122.663C148.542 122.487 148.482 122.305 148.437 122.12C148.378 121.951 148.334 121.789 148.29 121.618C148.205 121.31 148.137 120.997 148.088 120.682C147.971 119.976 147.897 119.264 147.866 118.551V118.516C147.841 117.792 147.851 117.081 147.885 116.385V116.367H147.851L144.665 115.247C144.225 115.101 143.833 114.84 143.53 114.49C143.227 114.14 143.024 113.715 142.943 113.259C142.899 113.005 142.908 112.745 142.968 112.495C143.04 112.164 143.184 111.853 143.39 111.583C143.595 111.314 143.857 111.093 144.156 110.935C144.433 110.788 144.737 110.7 145.05 110.676C145.362 110.653 145.677 110.694 145.972 110.797L152.384 113.125L153.701 113.599L153.735 113.618C153.735 113.618 153.735 111.665 155.607 111.705C157.338 111.749 163.613 112.258 165.472 119.118C165.762 120.161 166.346 121.099 167.154 121.82L182.311 130.896C183.341 131.83 184.634 132.424 186.014 132.597V134.522C186.012 134.523 186.011 134.526 186.01 134.528C186.008 134.531 186.008 134.533 186.008 134.536C186.008 134.538 186.008 134.541 186.01 134.543C186.011 134.546 186.012 134.548 186.014 134.55V135.951L187.219 144.391L188.067 150.29C186.96 150.381 185.846 150.341 184.748 150.172L184.027 149.9H184.008L179.45 148.172Z" fill="white"/>
<path d="M185.814 134.422V134.447C185.456 137.608 185.1 141.277 184.819 145.336C182.797 146.272 180.735 147.083 178.707 147.891C178.668 147.871 178.631 147.848 178.595 147.822C177.217 146.917 175.951 145.851 174.826 144.646L157.622 133.97C158.687 133.431 159.635 132.689 160.414 131.786L160.467 131.733C163.709 128.251 166.52 122.373 166.87 121.636L166.945 121.714L182.102 130.79C183.132 131.724 184.425 132.316 185.805 132.488L185.814 134.422Z" fill="#2E2E2E"/>
<path d="M155.297 116.513L154.951 117.449L154.62 118.357L154.439 118.872L154.414 118.95L154.38 119.044C154.299 119.278 154.128 119.47 153.905 119.578C153.682 119.686 153.426 119.702 153.191 119.621L147.706 117.936H147.681L139.8 115.515L141.847 110.676L142.749 108.545C142.864 108.277 143.074 108.061 143.34 107.94C143.605 107.819 143.906 107.801 144.184 107.89L155.045 111.322C154.693 111.241 154.335 111.19 153.975 111.169C153.719 111.153 153.463 111.195 153.225 111.291C152.987 111.386 152.773 111.533 152.599 111.721C152.434 111.908 152.315 112.132 152.251 112.374C152.188 112.615 152.182 112.868 152.234 113.112C152.396 113.74 152.719 114.314 153.17 114.779C153.213 114.828 153.257 114.872 153.307 114.922C153.71 115.369 154.177 115.755 154.692 116.067C154.692 116.067 154.708 116.067 154.726 116.092C154.726 116.092 154.745 116.117 154.726 116.092C154.907 116.246 155.098 116.386 155.297 116.513Z" fill="#3FBDF1"/>
<path d="M147.826 117.936C147.826 118.104 147.826 118.285 147.845 118.454C147.867 119.201 147.946 119.944 148.082 120.678C148.132 120.994 148.199 121.307 148.285 121.614C148.328 121.783 148.369 121.945 148.428 122.114C148.487 122.282 148.55 122.488 148.625 122.675C148.649 122.745 148.677 122.812 148.709 122.878" stroke="black" stroke-width="3.7" stroke-miterlimit="10"/>
<path d="M157.794 117.14C157.482 117.09 157.17 117.031 156.858 116.953C156.546 116.875 156.315 116.791 156.053 116.691C155.635 116.528 155.233 116.326 154.855 116.086C154.855 116.086 154.83 116.086 154.82 116.061C154.25 115.713 153.737 115.278 153.301 114.772C152.849 114.308 152.527 113.733 152.365 113.106C152.308 112.862 152.311 112.608 152.375 112.365C152.438 112.123 152.56 111.899 152.73 111.715C152.904 111.527 153.118 111.38 153.356 111.285C153.594 111.189 153.85 111.148 154.106 111.162C154.586 111.2 155.062 111.274 155.532 111.384C156.203 111.503 156.873 111.612 157.538 111.749C159.236 112.039 160.837 112.741 162.199 113.796C163.788 115.128 164.914 116.929 165.416 118.941C165.703 119.985 166.283 120.924 167.088 121.649L186.005 132.912" stroke="black" stroke-width="3.7" stroke-miterlimit="10"/>
<path d="M147.848 118.451C147.848 118.451 148.453 121.855 153.186 121.761C153.553 121.748 153.907 121.622 154.2 121.402C154.494 121.181 154.712 120.876 154.827 120.528C154.942 120.179 154.947 119.804 154.843 119.452C154.738 119.1 154.528 118.789 154.241 118.56L154.178 118.513" stroke="black" stroke-width="3.7" stroke-miterlimit="10"/>
<path d="M148.608 122.647C148.608 122.647 150.927 125.059 153.238 124.017C155.282 123.081 153.884 121.249 153.884 121.249" stroke="black" stroke-width="3.7" stroke-miterlimit="10"/>
<path d="M154.933 118.404L154.764 118.354" stroke="black" stroke-width="3.7" stroke-miterlimit="10"/>
<path d="M130.46 250.249C129.476 250.39 128.48 250.418 127.49 250.333L125.93 250.208L130.46 250.249Z" fill="#D7E8F0"/>
<path d="M147.994 179.728L142.176 238.072C141.87 241.12 140.549 243.978 138.423 246.185C136.298 248.392 133.492 249.82 130.457 250.24C129.473 250.38 128.477 250.409 127.487 250.324L125.927 250.199L54.7376 244.449C52.6746 244.288 50.6763 243.655 48.897 242.599C48.0365 240.79 47.5919 238.811 47.5959 236.808V235.451L113 240.755L114.56 240.883C115.55 240.964 116.547 240.936 117.531 240.798C120.565 240.377 123.37 238.949 125.495 236.742C127.621 234.535 128.943 231.679 129.249 228.63L133.929 181.784L147.994 179.728Z" fill="#3FBDF1"/>
<path d="M133.923 181.749L129.243 228.596C128.936 231.644 127.615 234.501 125.489 236.708C123.364 238.915 120.559 240.343 117.524 240.764C116.541 240.902 115.545 240.93 114.554 240.848L112.994 240.72L47.5897 235.416V205.992C47.5912 202.705 48.7765 199.529 50.9284 197.044C53.0805 194.56 56.0555 192.934 59.3084 192.463L133.923 181.749Z" fill="#D7E8F0"/>
<path d="M135.889 256.211C134.904 256.352 133.907 256.38 132.916 256.296L131.356 256.171L135.889 256.211Z" fill="#D7E8F0"/>
<path d="M130.496 250.249L137.473 265.119C138.134 266.529 138.428 268.084 138.329 269.638C138.229 271.192 137.739 272.696 136.904 274.011C136.069 275.326 134.915 276.409 133.55 277.159C132.185 277.909 130.653 278.303 129.096 278.304H124.104C123.91 278.304 123.719 278.341 123.54 278.415C123.362 278.489 123.199 278.597 123.062 278.733C122.926 278.87 122.817 279.032 122.743 279.21C122.669 279.389 122.631 279.58 122.631 279.774V287.024C122.631 287.671 122.374 288.291 121.917 288.748C121.46 289.204 120.841 289.461 120.194 289.461C119.548 289.461 118.928 289.204 118.471 288.748C118.014 288.291 117.758 287.671 117.758 287.024V279.77C117.758 279.577 117.72 279.385 117.646 279.207C117.573 279.028 117.464 278.866 117.327 278.729C117.19 278.593 117.028 278.485 116.849 278.411C116.67 278.337 116.478 278.3 116.285 278.301H61.2044C61.0113 278.301 60.82 278.338 60.6416 278.412C60.4631 278.486 60.3012 278.594 60.1645 278.731C60.0279 278.867 59.9196 279.029 59.846 279.208C59.7723 279.386 59.7346 279.577 59.7349 279.77V287.021C59.7124 287.653 59.4457 288.251 58.9908 288.69C58.5359 289.129 57.9287 289.374 57.2966 289.374C56.6648 289.374 56.0573 289.129 55.6028 288.69C55.1479 288.251 54.8811 287.653 54.8583 287.021V279.77C54.859 279.577 54.8212 279.386 54.7473 279.208C54.6736 279.029 54.5654 278.867 54.429 278.731C54.2924 278.594 54.1301 278.486 53.9517 278.412C53.7732 278.338 53.5819 278.301 53.3888 278.301H44.8275C44.3121 278.281 43.8245 278.061 43.4669 277.689C43.1093 277.317 42.9097 276.822 42.9097 276.306C42.9097 275.79 43.1093 275.294 43.4669 274.922C43.8245 274.55 44.3121 274.331 44.8275 274.31H127.295C128.335 274.309 129.358 274.046 130.269 273.546C131.181 273.046 131.952 272.324 132.511 271.448C133.07 270.571 133.4 269.569 133.47 268.531C133.54 267.494 133.348 266.455 132.911 265.512L125.82 250.224" fill="#2E2E2E"/>
<path d="M127.486 250.333L54.7373 244.452C51.3156 244.176 48.1235 242.622 45.796 240.099C43.4681 237.576 42.1758 234.269 42.1761 230.836V200.029C42.1771 196.743 43.3624 193.567 45.5146 191.084C47.6667 188.6 50.642 186.976 53.8949 186.507L142.921 173.715L151.698 161.563C151.932 161.315 152.216 161.117 152.531 160.983C152.845 160.848 153.184 160.78 153.526 160.782C153.868 160.784 154.206 160.857 154.519 160.994C154.832 161.133 155.113 161.334 155.345 161.585C155.744 162.023 155.975 162.588 155.995 163.18C156.016 163.773 155.825 164.353 155.457 164.817L148.237 177.232L142.182 238.072C141.826 241.633 140.087 244.913 137.34 247.205C134.591 249.498 131.053 250.621 127.486 250.333Z" stroke="black" stroke-width="3.7" stroke-miterlimit="10"/>
<path d="M127.804 287.686C127.807 289.083 127.425 290.453 126.699 291.647C125.973 292.841 124.932 293.811 123.69 294.451C122.448 295.091 121.054 295.376 119.661 295.275C118.267 295.174 116.929 294.691 115.793 293.878C114.656 293.065 113.766 291.955 113.22 290.669C112.674 289.383 112.493 287.972 112.698 286.59C112.902 285.208 113.484 283.909 114.379 282.836C115.274 281.763 116.447 280.958 117.77 280.51V287.024C117.77 287.671 118.027 288.29 118.484 288.747C118.941 289.204 119.561 289.461 120.207 289.461C120.853 289.461 121.473 289.204 121.93 288.747C122.387 288.29 122.644 287.671 122.644 287.024V280.507C124.148 281.012 125.455 281.976 126.381 283.264C127.307 284.552 127.805 286.099 127.804 287.686Z" stroke="black" stroke-width="3.7" stroke-miterlimit="10"/>
<path d="M64.896 287.686C64.8985 289.082 64.516 290.453 63.79 291.646C63.064 292.839 62.0228 293.809 60.7814 294.448C59.5399 295.088 58.1459 295.372 56.7528 295.271C55.3601 295.169 54.0222 294.685 52.8865 293.872C51.7508 293.059 50.8616 291.949 50.3163 290.663C49.7712 289.377 49.5912 287.966 49.7965 286.585C50.0018 285.203 50.584 283.905 51.4794 282.833C52.3748 281.762 53.5486 280.958 54.8715 280.51V287.024C54.8721 287.671 55.1298 288.291 55.5872 288.748C56.0446 289.204 56.6648 289.461 57.3113 289.461C57.9575 289.461 58.5774 289.204 59.0342 288.747C59.4913 288.29 59.748 287.671 59.748 287.024V280.507C61.2503 281.012 62.556 281.977 63.4799 283.266C64.4037 284.554 64.8988 286.1 64.896 287.686Z" stroke="black" stroke-width="3.7" stroke-miterlimit="10"/>
<path d="M130.496 250.249L137.473 265.119C138.134 266.529 138.428 268.084 138.329 269.638C138.229 271.192 137.739 272.696 136.904 274.011C136.069 275.326 134.915 276.409 133.55 277.159C132.185 277.909 130.653 278.303 129.096 278.304H124.104C123.91 278.304 123.719 278.341 123.54 278.415C123.362 278.489 123.199 278.597 123.062 278.733C122.926 278.87 122.817 279.032 122.743 279.21C122.669 279.389 122.631 279.58 122.631 279.774V287.024C122.631 287.671 122.374 288.29 121.917 288.748C121.46 289.204 120.841 289.461 120.194 289.461C119.548 289.461 118.928 289.204 118.471 288.748C118.014 288.29 117.758 287.671 117.758 287.024V279.77C117.758 279.577 117.72 279.385 117.646 279.207C117.573 279.028 117.464 278.866 117.327 278.729C117.19 278.593 117.028 278.485 116.849 278.411C116.67 278.337 116.478 278.3 116.285 278.301H61.2044C61.0113 278.301 60.82 278.338 60.6416 278.412C60.4631 278.486 60.3012 278.594 60.1645 278.731C60.0279 278.867 59.9196 279.029 59.846 279.208C59.7723 279.386 59.7346 279.577 59.7349 279.77V287.021C59.7124 287.653 59.4457 288.251 58.9908 288.69C58.5359 289.129 57.9287 289.374 57.2966 289.374C56.6648 289.374 56.0573 289.129 55.6028 288.69C55.1479 288.251 54.8811 287.653 54.8583 287.021V279.77C54.859 279.577 54.8212 279.386 54.7473 279.208C54.6736 279.029 54.5654 278.867 54.429 278.731C54.2924 278.594 54.1301 278.486 53.9517 278.412C53.7732 278.338 53.5819 278.301 53.3888 278.301H44.8275C44.3121 278.281 43.8245 278.061 43.4669 277.689C43.1093 277.317 42.9097 276.822 42.9097 276.306C42.9097 275.79 43.1093 275.294 43.4669 274.922C43.8245 274.55 44.3121 274.331 44.8275 274.31H127.295C128.335 274.309 129.358 274.046 130.269 273.546C131.181 273.046 131.952 272.324 132.511 271.448C133.07 270.571 133.4 269.569 133.47 268.531C133.54 267.494 133.348 266.455 132.911 265.512L125.82 250.224" stroke="black" stroke-width="3.7" stroke-miterlimit="10"/>
<path d="M155.476 116.426L154.752 118.354L154.555 118.872L154.496 119.044C154.414 119.273 154.246 119.462 154.028 119.57C153.809 119.677 153.558 119.696 153.326 119.621L147.825 117.936L139.464 115.365C139.309 115.317 139.165 115.237 139.043 115.131C138.921 115.024 138.822 114.893 138.754 114.746C138.685 114.6 138.647 114.44 138.644 114.278C138.641 114.116 138.671 113.955 138.734 113.805L141.791 106.56C141.907 106.293 142.118 106.078 142.383 105.956C142.648 105.835 142.948 105.817 143.226 105.905L156.514 110.102C156.673 110.15 156.82 110.231 156.945 110.34C157.07 110.449 157.17 110.583 157.239 110.734C157.308 110.884 157.345 111.048 157.347 111.214C157.348 111.38 157.314 111.544 157.248 111.696" stroke="black" stroke-width="3.7" stroke-miterlimit="10"/>
<path d="M152.724 112.51L140.896 108.682" stroke="black" stroke-width="3.7" stroke-miterlimit="10"/>
<path d="M167.1 121.649C167.1 121.649 162.551 131.542 158.143 133.892C158.111 133.908 158.084 133.932 158.064 133.962C158.044 133.992 158.033 134.027 158.031 134.063C158.029 134.099 158.036 134.134 158.053 134.166C158.069 134.198 158.094 134.225 158.124 134.244L178.794 147.888" stroke="black" stroke-width="3.7" stroke-miterlimit="10"/>
<path d="M158.496 129.418C158.496 129.418 155.944 133.137 157.828 134.048" stroke="black" stroke-width="3.7" stroke-miterlimit="10"/>
<path d="M159.909 153.691C159.909 153.691 158.864 153.738 160.961 156.378C163.057 159.017 163.769 164.04 162.343 167.631C162.343 167.631 162.281 168.567 166.012 167.4C169.744 166.234 182.832 163.504 182.832 163.504C182.832 163.504 184.876 162.427 184.242 165.154C183.609 167.881 182.37 177.912 181.075 180.804C179.781 183.696 178.52 186.564 182.975 187.649C187.431 188.735 211.736 191.019 211.736 191.019C211.736 191.019 228.272 194.685 228.097 187.091C227.922 179.497 226.709 157.635 226.709 157.635C226.709 157.635 226.808 140.759 227.922 130.781C227.922 130.781 230.83 105.431 222.185 103.088C213.539 100.745 210.603 103.238 208.41 104.42C206.216 105.603 186.882 115.708 185.827 136.556C185.827 136.556 185.755 144.612 184.124 145.813C182.492 147.014 163.397 153.619 159.909 153.691Z" fill="#2E2E2E"/>
<path d="M190.904 286.662L188.72 295.271H162.128C161.545 295.267 160.985 295.036 160.568 294.628C160.289 294.348 160.09 293.998 159.992 293.615C159.894 293.232 159.901 292.829 160.011 292.45C160.121 292.07 160.331 291.727 160.619 291.456C160.907 291.185 161.262 290.996 161.648 290.909L177.585 286.662C177.585 286.662 186.811 289.904 190.904 286.662Z" fill="#2E2E2E"/>
<path d="M221.805 191.496C221.602 191.496 221.39 191.515 221.181 191.515C220.348 196.888 219.423 202.242 218.404 207.58C206.492 204.912 190.034 209.642 190.034 209.642L190.38 211.514C187.666 211.661 186.832 210.659 186.832 210.659L186.233 210.288L187.728 197.1L187.441 195.54V195.49C187.263 194.573 187.095 193.646 186.932 192.729L186.873 192.392C186.636 190.972 186.414 189.546 186.218 188.127L186.414 188.155C186.483 188.155 186.549 188.18 186.627 188.186L186.795 188.214C186.942 188.23 187.085 188.255 187.229 188.273C187.541 188.314 187.943 188.373 188.392 188.442C188.57 188.442 188.758 188.485 188.954 188.52C195.718 189.459 213.34 191.752 221.805 191.496Z" fill="#3FBDF1"/>
<path d="M203.989 234.895L203.948 235.058L190.903 286.663L188.719 295.271H162.128C161.544 295.267 160.985 295.036 160.568 294.628C160.289 294.348 160.09 293.998 159.992 293.615C159.894 293.231 159.901 292.829 160.011 292.449C160.121 292.069 160.331 291.726 160.618 291.454C160.906 291.183 161.262 290.994 161.647 290.906L177.584 286.663L186.233 210.288L187.727 197.1" stroke="black" stroke-width="3.7" stroke-miterlimit="10"/>
<path d="M163.026 163.728C162.09 163.772 161.566 163.781 161.566 163.781C160.63 163.847 159.722 163.491 158.824 163.008C156.421 161.682 154.119 159.357 151.81 161.31C150.315 162.558 149.083 166.071 146.612 164.926C144.456 163.925 144.54 161.806 144.896 159.866C145.339 157.463 147.283 155.323 149.576 154.939C152.733 154.406 155.978 154.381 159.154 153.828C165.552 152.658 171.813 150.837 177.84 148.393C184.532 145.726 191.833 142.977 196.775 137.498C202.644 131.012 206.372 122.522 208.41 114.08" stroke="black" stroke-width="3.7" stroke-miterlimit="10"/>
<path d="M196.07 79.1981C196.07 79.1981 196.654 69.4855 205.72 67.211C214.787 64.9366 220.197 75.4697 220.606 82.2307C221.015 88.9918 220.606 93.6562 225.37 95.784C225.37 95.784 239.139 95.6155 244.212 108.264C244.212 108.264 244.898 114.463 244.617 118.454C244.337 122.444 249.316 125.942 252.027 127.171C254.739 128.4 259.456 133.411 258.174 141.595C256.891 149.779 246.187 153.594 246.187 153.594C246.187 153.594 237.039 156.303 231.523 151.782C225.666 146.986 227.323 138.216 227.323 138.216C227.323 138.216 230.484 109.693 224.73 105.007C221.564 102.426 220.125 102.66 217.888 101.3C215.533 99.8681 214.69 99.4282 213.901 98.4204C212.366 96.4454 209.645 93.4627 211.614 86.4271C213.583 79.3915 211.614 82.939 209.742 81.9468C209.742 81.9468 207.446 78.4025 203.979 80.9078C200.513 83.4132 201.359 77.3011 201.359 77.3011L199.836 79.3478C199.836 79.3478 197.455 79.8252 196.07 79.1981Z" fill="#3FBDF1"/>
<path d="M193.937 82.5552C193.852 78.0218 195.544 72.93 199.066 69.9098C199.544 69.498 200.058 69.1295 200.601 68.8085C204.407 66.559 209.696 66.7618 213.484 68.9489C215.498 70.1454 217.178 71.8299 218.369 73.8473L218.401 73.9034C219.868 76.4316 220.63 79.3076 220.606 82.2307C220.625 86.0309 220.647 91.1882 223.087 94.3426C224.628 96.3394 226.678 95.7778 228.934 96.1178C231.988 96.5768 234.885 97.7705 237.376 99.5966C240.74 102.071 243.542 105.762 244.315 109.93C245.061 113.942 243.604 118.466 245.766 122.176C247.351 124.887 250.365 126.126 252.917 127.708C258.04 130.921 259.095 137.149 257.472 142.628C255.781 148.34 251.806 151.85 246.187 153.601C246.187 153.601 227.199 158.281 226.965 141.639" stroke="black" stroke-width="3.7" stroke-miterlimit="10"/>
<path d="M201.094 77.0141C200.897 78.3494 200.086 79.5818 198.641 79.95C197.013 80.365 196.145 81.9499 195.69 83.5442C195.038 85.8833 195.207 88.3746 196.167 90.6048C197.056 92.7014 198.644 95.0976 201.328 95.4813C206.239 96.1802 208.682 94.1117 208.682 94.1117" stroke="black" stroke-width="3.7" stroke-miterlimit="10"/>
<path d="M205.184 84.1495C205.65 84.1495 206.029 83.7711 206.029 83.304C206.029 82.8369 205.65 82.4585 205.184 82.4585C204.717 82.4585 204.338 82.8369 204.338 83.304C204.338 83.7711 204.717 84.1495 205.184 84.1495Z" fill="black"/>
<path d="M197.767 83.5942C198.234 83.5942 198.613 83.2154 198.613 82.7486C198.613 82.2816 198.234 81.9031 197.767 81.9031C197.3 81.9031 196.922 82.2816 196.922 82.7486C196.922 83.2154 197.3 83.5942 197.767 83.5942Z" fill="black"/>
<path d="M201.093 77.0141C200.907 77.8165 200.936 78.6536 201.177 79.4414C201.214 79.5691 201.262 79.6932 201.32 79.8127C201.907 81.1886 203.27 82.2869 205.688 82.1496C210.939 81.8594 212.811 81.5256 212.384 83.9374C212.207 84.7907 211.952 85.6262 211.623 86.4334C211.046 87.9653 210.643 90.5954 211.236 93.4596C211.919 96.8074 213.542 100.227 219.011 102.13" stroke="black" stroke-width="3.7" stroke-miterlimit="10"/>
<path d="M201.552 83.5099C201.552 83.5099 200.666 86.7485 200.756 87.2258C200.847 87.7032 201.979 87.3319 201.979 87.3319" stroke="black" stroke-width="3.7" stroke-miterlimit="10"/>
<path d="M202.176 90.299C203.87 91.2132 205.836 90.636 206.603 89.1072" stroke="black" stroke-width="3.7" stroke-miterlimit="10"/>
<path d="M209.336 86.6652C210.793 85.1214 210.692 82.6597 209.111 81.1671C207.53 79.6742 205.067 79.7157 203.609 81.2592C202.152 82.8029 202.252 85.2646 203.834 86.7572C205.415 88.2501 207.878 88.2086 209.336 86.6652Z" stroke="black" stroke-width="3.7" stroke-miterlimit="10"/>
<path d="M199.498 85.7625C200.955 84.2188 200.855 81.7574 199.273 80.2645C197.692 78.7719 195.229 78.8131 193.772 80.3568C192.314 81.9006 192.415 84.362 193.996 85.8549C195.577 87.3475 198.041 87.3063 199.498 85.7625Z" stroke="black" stroke-width="3.7" stroke-miterlimit="10"/>
<path d="M196.56 80.3649C196.644 80.3603 196.728 80.3603 196.813 80.3649C197.533 80.4317 198.199 80.7759 198.669 81.3253C199.14 81.8744 199.378 82.5852 199.334 83.3071C199.294 83.9698 199.001 84.5916 198.515 85.0447C198.03 85.4974 197.389 85.7467 196.725 85.7407C196.641 85.7407 196.557 85.7407 196.473 85.7407C195.753 85.6724 195.088 85.3276 194.618 84.7785C194.148 84.2297 193.909 83.5199 193.952 82.7986C193.992 82.1359 194.285 81.5137 194.77 81.061C195.255 80.608 195.896 80.3587 196.56 80.3649ZM196.56 79.7877C195.75 79.7837 194.97 80.0888 194.378 80.6408C193.786 81.1927 193.427 81.9502 193.374 82.758C193.321 83.63 193.609 84.4887 194.177 85.1523C194.745 85.8162 195.549 86.2328 196.42 86.3148C196.523 86.3148 196.625 86.3304 196.732 86.3304C197.541 86.3335 198.322 86.0278 198.914 85.4752C199.506 84.9227 199.865 84.1651 199.917 83.357C199.97 82.485 199.681 81.6267 199.113 80.9631C198.545 80.2997 197.742 79.8826 196.872 79.8002C196.769 79.8002 196.666 79.8002 196.56 79.8002V79.7877Z" fill="white"/>
<path d="M202.585 83.6035L200.52 83.4132" stroke="black" stroke-width="3.7" stroke-miterlimit="10"/>
<path d="M206.385 81.1855H206.644C207.386 81.2554 208.072 81.6104 208.556 82.1764C209.042 82.7421 209.288 83.4743 209.243 84.2181C209.199 84.8989 208.895 85.537 208.395 86.0009C207.895 86.4652 207.236 86.7204 206.554 86.7142C206.466 86.7142 206.382 86.7142 206.295 86.7142C205.553 86.6443 204.867 86.2889 204.382 85.7229C203.897 85.1573 203.651 84.4253 203.696 83.6815C203.739 83.0004 204.043 82.3617 204.543 81.8975C205.043 81.4332 205.703 81.1783 206.385 81.1855ZM206.385 80.6083C205.554 80.6024 204.752 80.9147 204.144 81.4807C203.535 82.0466 203.166 82.8241 203.112 83.6534C203.058 84.5467 203.353 85.4262 203.935 86.1064C204.518 86.7862 205.341 87.2134 206.232 87.2976C206.338 87.2976 206.441 87.3132 206.544 87.3132C207.374 87.3163 208.174 87.0028 208.781 86.4362C209.387 85.8699 209.754 85.093 209.808 84.2649C209.867 83.3701 209.573 82.4881 208.99 81.807C208.407 81.1259 207.581 80.7003 206.688 80.6208C206.582 80.6208 206.479 80.6208 206.376 80.6208L206.385 80.6083Z" fill="white"/>
<path d="M199.092 85.3791C200.342 84.0547 200.256 81.9424 198.899 80.6617C197.542 79.3806 195.428 79.4158 194.178 80.7403C192.928 82.0647 193.014 84.1767 194.371 85.4577C195.728 86.7388 197.842 86.7036 199.092 85.3791Z" fill="#3FBDF1"/>
<path d="M208.944 86.2911C210.2 84.9604 210.113 82.8385 208.75 81.5515C207.387 80.2645 205.263 80.3001 204.007 81.6307C202.751 82.9614 202.837 85.0833 204.201 86.3703C205.564 87.6573 207.687 87.6218 208.944 86.2911Z" fill="#3FBDF1"/>
<path d="M205.184 106.014L204.036 101.047L202.788 95.6904" stroke="black" stroke-width="3.7" stroke-miterlimit="10"/>
<path d="M260.604 273.2L242.389 294.494C242.029 294.918 241.521 295.191 240.968 295.257C240.415 295.324 239.858 295.179 239.407 294.852L238.907 294.487C238.489 294.182 238.19 293.74 238.063 293.237C237.936 292.735 237.989 292.204 238.212 291.736L245.369 276.841C245.369 276.841 256.757 277.168 256.663 266.613C259.244 271.945 260.604 273.2 260.604 273.2Z" fill="#2E2E2E"/>
<path d="M229.822 259.65L229.694 259.522L224.905 254.97L224.674 254.757L204.669 235.725V235.707L204.64 235.682L203.963 235.058L197.883 229.276C194.553 226.105 192.311 221.962 191.48 217.439L190.379 211.536L190.03 209.664L187.727 197.131L187.44 195.571V195.521C187.262 194.604 187.094 193.677 186.931 192.76L186.872 192.423" stroke="black" stroke-width="3.7" stroke-miterlimit="10"/>
<path d="M186.208 188.136C186.404 189.556 186.626 190.981 186.863 192.401L186.922 192.738C187.085 193.655 187.253 194.582 187.431 195.499V195.549" stroke="black" stroke-width="3.7" stroke-linejoin="round"/>
<path d="M204.622 235.694L204.647 235.719L204.666 235.738" stroke="black" stroke-width="3.7" stroke-linejoin="round"/>
<path d="M224.672 254.757L224.903 254.97C226.633 256.592 228.23 258.11 229.692 259.522L229.817 259.65C249.002 278.185 245.367 276.841 245.367 276.841L238.206 291.736C237.984 292.204 237.932 292.735 238.06 293.238C238.187 293.74 238.486 294.182 238.905 294.487L239.404 294.853C239.855 295.179 240.413 295.324 240.966 295.257C241.519 295.191 242.027 294.918 242.387 294.494L260.599 273.2C260.599 273.2 259.241 271.952 256.661 266.613C250.462 253.765 237.224 230.056 219 217.701C218.321 217.246 217.793 216.6 217.481 215.845C217.17 215.09 217.089 214.259 217.249 213.458C217.599 211.767 217.93 210.076 218.254 208.379C218.304 208.116 218.354 207.851 218.398 207.589C219.415 202.248 220.34 196.893 221.174 191.524" stroke="black" stroke-width="3.7" stroke-linejoin="round"/>
<path d="M185.016 145.414C185.297 141.358 185.64 137.686 186.011 134.494C186.061 134.01 186.12 133.533 186.17 133.065C186.932 126.11 190.704 119.833 195.343 114.744C199.93 109.715 205.767 104.826 212.391 102.845C214.525 102.172 216.771 101.929 218.999 102.13C220.528 102.314 221.99 102.867 223.258 103.742C224.526 104.616 225.563 105.786 226.278 107.15C227.166 108.894 227.733 110.784 227.95 112.729C227.95 112.754 227.95 112.779 227.95 112.807C228.34 115.927 228.119 119.2 228.153 122.298C228.212 128.762 227.66 135.215 226.946 141.642" stroke="black" stroke-width="3.7" stroke-linejoin="round"/>
<path d="M184.46 161.582V161.572" stroke="black" stroke-width="3.7" stroke-linejoin="round"/>
<path d="M159.164 153.816C162.119 157.273 163.959 162.318 162.693 166.83C162.381 167.9 161.251 169.35 160.225 168.031C159.965 167.657 159.791 167.231 159.716 166.783C159.426 165.513 159.045 164.265 158.824 162.976" stroke="black" stroke-width="3.7" stroke-miterlimit="10"/>
<path d="M161.432 168.542C185.565 162.165 219.738 160.006 227.099 126.36C228.062 121.88 228.35 117.281 227.953 112.716" stroke="black" stroke-width="3.7" stroke-miterlimit="10"/>
<path d="M184.392 163.101C183.914 171.151 181.393 179.949 180.002 184.317C179.893 184.656 179.859 185.014 179.902 185.367C179.945 185.72 180.064 186.06 180.251 186.363C180.439 186.665 180.689 186.924 180.986 187.12C181.283 187.316 181.619 187.446 181.971 187.5C183.109 187.677 184.551 187.89 186.208 188.124L186.404 188.152C186.473 188.152 186.538 188.177 186.616 188.183L186.785 188.211C186.931 188.226 187.075 188.251 187.218 188.27C187.593 188.329 187.983 188.379 188.382 188.439C188.56 188.439 188.747 188.482 188.944 188.517C198.616 189.889 213.024 191.683 221.176 191.506C221.389 191.506 221.601 191.506 221.8 191.487L222.424 191.462L223.03 191.428C225.257 191.265 226.774 190.885 227.207 190.214C230.015 185.968 224.805 161.563 227.301 138.204" stroke="black" stroke-width="3.7" stroke-miterlimit="10"/>
<path d="M249.298 295.274H20.8419" stroke="black" stroke-width="3.7" stroke-linejoin="round"/>
<path d="M31.4281 223.735C31.4281 223.735 0.493216 260.018 31.4281 294.896" stroke="#CCDDE2" stroke-width="3.7" stroke-miterlimit="10"/>
</svg>
