<svg width="312" height="312" viewBox="0 0 312 312" fill="none" xmlns="http://www.w3.org/2000/svg">
<path d="M247.069 204.419H177.665C176.178 204.419 174.972 205.625 174.972 207.112V256.037C174.972 257.524 176.178 258.729 177.665 258.729H247.069C248.556 258.729 249.762 257.524 249.762 256.037V207.112C249.762 205.625 248.556 204.419 247.069 204.419Z" fill="#3FBDF1"/>
<path d="M243.569 206.962H181.169C179.682 206.962 178.476 208.168 178.476 209.655V253.494C178.476 254.981 179.682 256.186 181.169 256.186H243.569C245.056 256.186 246.261 254.981 246.261 253.494V209.655C246.261 208.168 245.056 206.962 243.569 206.962Z" fill="#3FBDF1"/>
<path d="M280.254 258.729H255.216C254.5 258.729 253.791 258.588 253.13 258.314C252.468 258.04 251.867 257.638 251.361 257.132C250.855 256.625 250.454 256.024 250.18 255.362C249.906 254.701 249.765 253.991 249.766 253.275V214.235C249.766 213.884 249.836 213.536 249.972 213.213C250.108 212.889 250.307 212.596 250.557 212.351C250.808 212.105 251.106 211.912 251.432 211.783C251.758 211.654 252.107 211.591 252.458 211.598L266.386 211.723C266.76 211.732 267.128 211.819 267.466 211.981C267.804 212.142 268.104 212.373 268.345 212.659L285.218 232.627C287.89 235.376 289.383 239.059 289.38 242.892V249.6C289.381 250.799 289.146 251.986 288.687 253.094C288.229 254.202 287.557 255.208 286.71 256.056C285.862 256.904 284.856 257.576 283.748 258.035C282.64 258.494 281.453 258.729 280.254 258.729Z" fill="#3FBDF1"/>
<path d="M212.366 247.322C221.063 247.322 228.113 240.272 228.113 231.576C228.113 222.879 221.063 215.829 212.366 215.829C203.67 215.829 196.62 222.879 196.62 231.576C196.62 240.272 203.67 247.322 212.366 247.322Z" fill="#D7E8F0"/>
<path d="M255.216 231.476V218.207C255.216 217.813 255.372 217.437 255.65 217.159C255.928 216.881 256.305 216.725 256.698 216.725H264.145C264.373 216.725 264.597 216.778 264.801 216.878C265.005 216.979 265.183 217.125 265.322 217.305L275.527 230.568C275.696 230.787 275.801 231.05 275.828 231.326C275.856 231.601 275.805 231.879 275.683 232.128C275.56 232.376 275.371 232.586 275.135 232.732C274.9 232.878 274.628 232.955 274.351 232.955H256.707C256.512 232.956 256.319 232.919 256.138 232.845C255.957 232.771 255.793 232.662 255.654 232.525C255.516 232.388 255.406 232.224 255.331 232.044C255.255 231.864 255.216 231.671 255.216 231.476Z" fill="white"/>
<path d="M181.338 258.614V258.72C181.338 261.95 182.621 265.048 184.905 267.333C187.19 269.617 190.288 270.9 193.518 270.9C196.749 270.9 199.847 269.617 202.131 267.333C204.416 265.048 205.699 261.95 205.699 258.72" stroke="#CCDDE2" stroke-width="4.57" stroke-miterlimit="10"/>
<path d="M255.216 258.72C255.216 261.95 256.499 265.048 258.783 267.332C261.067 269.616 264.165 270.899 267.395 270.899C270.625 270.899 273.723 269.616 276.007 267.332C278.291 265.048 279.574 261.95 279.574 258.72" fill="#3FBDF1"/>
<path d="M255.248 145.882C265.375 143.717 276.28 147.626 283.696 154.852C291.112 162.078 295.24 172.268 296.304 182.567C298.017 198.956 293.424 217.888 284.389 231.654" stroke="#CCDDE2" stroke-width="4.57" stroke-miterlimit="10"/>
<path d="M164.536 79.9937C181.503 73.8785 201.842 79.301 217.754 121.49C222.952 135.277 229.554 141.77 238.854 142.581" stroke="#CCDDE2" stroke-width="4.57" stroke-miterlimit="10"/>
<path d="M99.6937 100.271C99.6937 100.271 118.632 98.0866 118.748 121.327L171.763 105.89L180.087 103.272C180.087 103.272 168.143 88.7827 154.365 86.2899C154.514 87.6979 154.793 89.0891 155.199 90.4457C155.91 92.9417 153.551 94.4081 150.278 95.3379C147.005 96.2676 140.379 90.7671 139.24 85.9154C139.24 85.9154 140.875 84.4397 134.784 85.4974C128.694 86.5551 110.214 90.8482 99.6937 100.271Z" fill="#2E2E2E"/>
<path d="M17.4716 213.059C17.9885 213.337 18.5661 213.484 19.1532 213.486C19.6824 213.485 20.2047 213.366 20.6815 213.136C21.1583 212.907 21.5775 212.573 21.9082 212.16L33.8579 197.512L43.5018 185.409L35.6082 180.982C34.7902 180.52 33.8223 180.402 32.9172 180.654C32.0121 180.905 31.244 181.506 30.7815 182.323L16.0644 208.166C15.8307 208.579 15.6816 209.034 15.6259 209.505C15.5702 209.975 15.609 210.452 15.74 210.908C15.8711 211.364 16.0917 211.789 16.3891 212.158C16.6864 212.527 17.0544 212.833 17.4716 213.059Z" fill="#2E2E2E"/>
<path d="M199.368 282.17L209.315 291.954C210.175 292.803 211.335 293.279 212.544 293.28H237.432C238.455 293.286 239.441 292.898 240.185 292.195C240.929 291.493 241.373 290.531 241.426 289.51C241.478 288.488 241.135 287.486 240.468 286.711C239.8 285.936 238.859 285.448 237.841 285.349L224.032 283.92L199.368 282.17Z" fill="#2E2E2E"/>
<path d="M153.542 85.176V85.8499V86.0215C159.045 87.4015 164.226 89.8385 168.799 93.1975C169.538 93.7404 170.262 94.2895 170.983 94.8699C171.001 92.5423 170.802 90.2055 170.047 88.0058C169.437 86.1158 168.291 84.4431 166.749 83.1917C165.391 82.109 163.785 81.4133 162.169 80.7862C160.552 80.159 158.967 79.6099 157.489 78.7644C156.241 78.0799 155.15 77.1414 154.287 76.0094C153.986 75.5998 153.798 75.1174 153.743 74.6117C153.688 74.1059 153.769 73.5946 153.975 73.1297C153.83 73.12 153.686 73.0916 153.548 73.0454L153.542 85.176Z" fill="#3FBDF1"/>
<path d="M153.542 85.176V85.8499V86.0215C159.045 87.4015 164.226 89.8385 168.799 93.1975C169.538 93.7404 170.262 94.2895 170.983 94.8699C171.001 92.5423 170.802 90.2055 170.047 88.0058C169.437 86.1158 168.291 84.4431 166.749 83.1917C165.391 82.109 163.785 81.4133 162.169 80.7862C160.552 80.159 158.967 79.6099 157.489 78.7644C156.241 78.0799 155.15 77.1414 154.287 76.0094C153.986 75.5998 153.798 75.1174 153.743 74.6117C153.688 74.1059 153.769 73.5946 153.975 73.1297C153.83 73.12 153.686 73.0916 153.548 73.0454L153.542 85.176Z" fill="#3FBDF1"/>
<path d="M77.523 137.748C79.589 139.23 81.8875 140.358 84.3246 141.083C85.3698 141.395 82.8987 142.562 83.972 142.771C79.7257 132.75 82.7552 117.343 96.1899 103.284C98.4769 100.888 103.737 97.8526 106.33 95.7434C110.501 92.352 115.066 91.9121 119.434 89.8778C121.386 88.9765 123.391 88.193 125.437 87.5316C129.074 86.3229 132.828 85.4989 136.638 85.0731C137.502 84.967 138.357 84.8921 139.221 84.8453C139.01 83.3599 139.052 81.8492 139.346 80.3774C140.141 76.3402 141.53 74.022 144.057 70.8396C145.642 68.8366 148.113 64.0474 144.815 62.3969C142.737 61.3611 142.547 59.2426 143.523 57.9509C144.35 56.8464 146.019 56.3441 148.085 57.6389C149.511 58.5499 151.205 58.6092 152.834 58.1631C154.103 57.4236 155.204 56.4268 156.066 55.2365C158.459 51.8045 158.543 46.6097 154.802 44.0919C152.759 42.7159 150.157 42.3821 147.714 42.6473C146.622 42.7737 145.547 43.0151 144.506 43.368C144.502 43.3661 144.497 43.3652 144.492 43.3652C144.488 43.3652 144.483 43.3661 144.478 43.368C140.06 45.7517 136.897 50.1603 135.377 55.1273C134.485 58.0632 133.477 60.9711 132.298 63.8196C131.33 66.1565 130.657 68.9988 128.498 70.5931C127.597 71.2617 126.574 71.7463 125.487 72.019C121.412 74.6023 115.759 73.111 111.303 72.5619C107.74 72.0748 104.113 72.4417 100.72 73.632C96.92 75.5508 93.6534 78.624 91.0014 82.6082C86.6334 89.2102 91.2572 98.7293 83.9346 103.937C81.7287 105.497 79.1734 106.454 76.7586 107.681C73.3016 109.44 70.5186 111.936 69.4921 115.793C67.4423 123.518 71.0708 133.065 77.523 137.748Z" fill="#3FBDF1"/>
<path d="M167.856 194.257L224.187 283.83L200.163 282.694L191.203 274.519H180.96C180.96 274.519 153.042 233.579 146.64 226.64C140.237 219.701 146.64 202.114 146.64 202.114L167.856 194.257Z" fill="white"/>
<path d="M256.608 293.277H83.3199" stroke="black" stroke-width="4.57" stroke-miterlimit="10"/>
<path d="M159.896 52.104C160.341 53.0263 160.722 53.9779 161.035 54.9526C161.491 56.5406 160.998 57.5203 161.69 59.0304C161.927 59.5514 162.271 60.4344 162.626 61.3298C162.729 61.1208 162.826 60.9492 162.882 60.815C165.6 54.7654 162.027 51.8482 160.308 50.8498C160.202 51.2775 160.064 51.6968 159.896 52.104Z" fill="#3FBDF1"/>
<path d="M159.896 52.104C160.341 53.0263 160.722 53.9779 161.035 54.9526C161.491 56.5406 160.998 57.5203 161.69 59.0304C161.927 59.5514 162.271 60.4344 162.626 61.3298C162.729 61.1208 162.826 60.9492 162.882 60.815C165.6 54.7654 162.027 51.8482 160.308 50.8498C160.202 51.2775 160.064 51.6968 159.896 52.104Z" fill="#3FBDF1"/>
<path d="M134.207 214.169C131.302 224.381 126.616 234.736 122.732 241.282C119.923 246.005 115.432 249.491 110.16 251.04C104.888 252.588 99.225 252.085 94.3085 249.631L51.6737 228.474V218.899L33.8585 197.524L21.909 212.16C21.5771 212.571 21.1574 212.902 20.6806 213.129C20.2039 213.357 19.6823 213.474 19.1541 213.474C18.5343 213.47 17.9261 213.305 17.3896 212.995C16.8531 212.684 16.4069 212.239 16.095 211.704C15.7831 211.168 15.6163 210.56 15.6111 209.94C15.6059 209.321 15.7624 208.71 16.0653 208.17L30.7823 182.339C31.2449 181.522 32.0131 180.921 32.9179 180.67C33.823 180.418 34.7908 180.536 35.6089 180.997L43.5025 185.425L88.7425 210.762C89.495 211.183 90.3365 211.42 91.1982 211.452C92.0596 211.484 92.9167 211.311 93.6986 210.948C94.4801 210.584 95.1644 210.04 95.6945 209.36C96.2249 208.68 96.5861 207.884 96.7484 207.037L102.109 178.957" stroke="black" stroke-width="4.57" stroke-miterlimit="10"/>
<path d="M114.586 197.923L126.176 207.352C138.375 216.976 148.992 228.451 157.642 241.36L180.798 274.61H218.176" stroke="black" stroke-width="4.57" stroke-miterlimit="10"/>
<path d="M191.703 274.616L199.368 282.17L209.315 291.954C210.175 292.803 211.335 293.28 212.544 293.28H237.432C238.455 293.286 239.441 292.898 240.185 292.196C240.929 291.493 241.374 290.532 241.426 289.51C241.479 288.488 241.135 287.486 240.468 286.711C239.8 285.936 238.859 285.448 237.841 285.349L224.032 283.92L157.37 177.918C153.938 172.446 150.88 163.438 153.542 157.538C163.679 135.096 162.802 113.356 162.802 113.356" stroke="black" stroke-width="4.57" stroke-miterlimit="10"/>
<path d="M153.541 71.136V85.0824V85.7563V85.9279C154.973 88.0183 155.697 90.9823 154.327 93.2038C152.496 96.1771 148.449 95.6842 145.882 94.0212C145.127 93.5317 144.407 92.9916 143.726 92.4051C141.444 90.4217 139.968 87.6714 139.576 84.6737C139.365 83.1892 139.407 81.6797 139.698 80.209C140.5 76.1748 141.882 73.8567 144.418 70.668C146.003 68.6681 148.474 63.8758 145.17 62.2253C141.304 60.2971 143.981 54.6531 148.44 57.4735C151.897 59.6575 156.864 56.9338 158.917 53.9979C161.31 50.5659 161.397 45.3711 157.653 42.8532C155.61 41.4773 153.008 41.1434 150.568 41.4086C143.127 42.2261 137.835 48.0418 135.717 54.9557C134.824 57.8916 133.816 60.7995 132.64 63.648C131.67 65.988 130.996 68.8272 128.84 70.4215C124.737 73.4916 118.791 71.8848 114.145 71.317C104.473 70.1283 96.6729 74.412 91.3439 82.4304C86.9759 89.0323 91.5998 98.5515 84.274 103.759C82.0713 105.319 79.516 106.277 77.098 107.503C73.6379 109.259 70.858 111.758 69.8284 115.615C67.7786 123.365 71.4071 132.915 77.8562 137.598C80.8108 139.745 84.2678 141.03 87.8589 141.729" stroke="black" stroke-width="4.57" stroke-miterlimit="10"/>
<path d="M172.633 96.6638C172.652 96.486 172.661 96.3144 172.668 96.1459C172.83 93.0852 172.811 89.9059 171.813 86.9762C171.202 85.0877 170.056 83.4166 168.515 82.1652C167.151 81.0826 165.548 80.3806 163.938 79.7566C162.328 79.1326 160.734 78.5834 159.258 77.7348C158.008 77.055 156.917 76.1158 156.06 74.9798C155.757 74.5724 155.567 74.0919 155.509 73.5874C155.451 73.0826 155.529 72.5718 155.732 72.1063" stroke="black" stroke-width="4.57" stroke-miterlimit="10"/>
<path d="M51.6763 218.902V189.999" stroke="black" stroke-width="4.57" stroke-miterlimit="10"/>
<path d="M150.544 68.016C151.664 69.6166 153.183 71.345 155.099 71.9721C157.579 72.7771 159.249 70.6742 160.138 68.6244C160.671 67.4045 161.036 66.1065 161.467 64.8461C161.607 64.4311 161.691 64.2221 162.169 64.1971C162.646 64.1721 163.142 64.272 163.629 64.272C163.666 64.2739 163.703 64.2651 163.735 64.2467C163.767 64.2283 163.793 64.2009 163.81 64.1681C163.827 64.1353 163.835 64.0982 163.831 64.0614C163.828 64.0246 163.814 63.9893 163.791 63.96C163.136 62.9647 162.159 60.2441 161.663 59.1552C160.977 57.6451 161.473 56.6592 161.011 55.0805C160.696 54.1064 160.318 53.1539 159.879 52.2288" stroke="black" stroke-width="4.57" stroke-miterlimit="10"/>
<path d="M160.608 49.3147C160.608 49.3147 167.369 51.9043 163.878 59.6981C163.663 60.1723 163.132 61.1551 162.883 61.6013" stroke="black" stroke-width="4.57" stroke-miterlimit="10"/>
<path d="M160.233 68.3873C159.693 68.4606 159.143 68.3346 158.689 68.0325C158.234 67.7305 157.904 67.2731 157.762 66.7462" stroke="black" stroke-width="4.57" stroke-miterlimit="10"/>
<path d="M161.378 57.9478C159.977 56.809 158.442 58.2598 157.506 59.3237" stroke="black" stroke-width="4.57" stroke-miterlimit="10"/>
<path d="M153.542 85.9279C159.047 87.3082 164.232 89.7456 168.808 93.1039C170.137 94.0649 171.419 95.0882 172.664 96.1522C177.575 100.32 181.896 105.144 186.096 110.021" stroke="black" stroke-width="4.57" stroke-miterlimit="10"/>
<path d="M192.395 156.025C192.37 156.01 192.346 155.991 192.326 155.969C186.816 150.459 181.266 144.99 175.74 139.498C171.11 134.899 165.089 130.191 162.262 124.157" stroke="black" stroke-width="4.57" stroke-miterlimit="10"/>
<path d="M127.788 195.696C128.238 195.552 128.665 195.409 129.071 195.259C129.078 195.261 129.085 195.261 129.092 195.259" stroke="black" stroke-width="4.57" stroke-miterlimit="10"/>
<path d="M85.8474 130.906L118.748 121.327L179.167 103.734C182.069 102.898 185.184 103.245 187.832 104.7C190.479 106.155 192.443 108.598 193.294 111.496L206.27 156.072C207.106 158.974 206.76 162.089 205.308 164.737C203.855 167.385 201.414 169.351 198.517 170.205L134.126 188.95L127.98 190.735L121.74 192.56L115.594 194.354L110.602 195.799L92.8799 200.959C89.9771 201.796 86.8608 201.45 84.2132 199.995C81.5655 198.54 79.6021 196.096 78.7525 193.197L65.7765 148.621C64.9394 145.721 65.2848 142.606 66.7371 139.96C68.1895 137.313 70.6302 135.349 73.5265 134.497L73.9914 134.363L74.3814 134.247L82.6557 131.836L85.8474 130.906Z" fill="white"/>
<path d="M90.7923 132.07L121.275 123.196L177.26 106.894C179.951 106.115 182.842 106.434 185.298 107.782C187.754 109.13 189.576 111.397 190.364 114.086L202.382 155.376C203.156 158.065 202.837 160.951 201.492 163.406C200.148 165.86 197.889 167.684 195.206 168.48L135.536 185.852L129.842 187.512L124.048 189.2L118.354 190.866L113.724 192.192L94.7765 197.808C92.0852 198.588 89.1942 198.269 86.7376 196.921C84.2812 195.573 82.4597 193.306 81.6725 190.616L69.6605 149.304C68.8812 146.615 69.1988 143.727 70.5435 141.271C71.8882 138.815 74.1508 136.992 76.8365 136.2L77.2671 136.076L77.629 135.973L87.8345 132.915L90.7923 132.07Z" fill="#3FBDF1"/>
<path d="M94.0935 133.536L122.358 125.309L176.334 109.506C178.827 108.788 181.503 109.086 183.778 110.336C186.052 111.585 187.739 113.684 188.47 116.173L199.621 154.471C200.34 156.965 200.042 159.641 198.794 161.916C197.546 164.191 195.449 165.88 192.96 166.614L135.571 183.415L130.292 184.95L124.922 186.51L119.64 188.052L115.363 189.3L96.0779 194.978C93.5825 195.703 90.9021 195.407 88.6242 194.157C86.3466 192.907 84.6577 190.805 83.9286 188.311L72.7746 150.016C72.0554 147.523 72.3528 144.847 73.6008 142.573C74.8491 140.299 76.947 138.611 79.4358 137.879L81.5511 137.277L81.8881 137.177L91.3511 134.344L94.0935 133.536Z" fill="#3FBDF1"/>
<path d="M136.104 156.328L85.3071 170.664C85.0363 170.74 84.753 170.763 84.4734 170.73C84.1939 170.697 83.9237 170.609 83.6784 170.471C83.4329 170.334 83.217 170.149 83.0429 169.928C82.8691 169.706 82.7403 169.453 82.6644 169.182C82.6086 168.995 82.5802 168.8 82.5802 168.605C82.5821 168.139 82.7353 167.686 83.0167 167.314C83.2978 166.942 83.6922 166.671 84.1402 166.542L134.937 152.215C134.732 152.915 134.723 153.657 134.909 154.362C135.11 155.118 135.525 155.8 136.104 156.328Z" fill="#3FBDF1"/>
<path d="M147.969 151.348C147.969 151.816 147.817 152.271 147.535 152.644C147.254 153.018 146.859 153.29 146.409 153.42L142.743 154.456C142.952 153.728 142.954 152.957 142.75 152.229C142.545 151.501 142.143 150.843 141.586 150.331L145.252 149.298C145.798 149.146 146.383 149.217 146.877 149.494C147.372 149.772 147.736 150.235 147.891 150.78C147.946 150.964 147.973 151.156 147.969 151.348Z" fill="#D7E8F0"/>
<path d="M150.278 159.529C150.276 159.995 150.124 160.448 149.842 160.82C149.561 161.192 149.166 161.462 148.718 161.591L98.2363 175.831C98.539 175.131 98.6373 174.36 98.5196 173.607C98.402 172.854 98.0735 172.149 97.5718 171.575L147.551 157.466C148.098 157.315 148.682 157.387 149.176 157.664C149.67 157.942 150.035 158.403 150.191 158.948C150.249 159.136 150.278 159.332 150.278 159.529Z" fill="#D7E8F0"/>
<path d="M92.1645 177.528L87.6155 178.81C87.3382 178.92 87.0412 178.97 86.7432 178.957C86.4455 178.945 86.1535 178.871 85.8861 178.739C85.6187 178.607 85.3819 178.42 85.191 178.191C85.0001 177.963 84.859 177.696 84.777 177.41C84.6949 177.123 84.674 176.823 84.7149 176.527C84.7561 176.232 84.8584 175.949 85.0156 175.695C85.1729 175.442 85.3813 175.225 85.6275 175.056C85.8736 174.888 86.1523 174.774 86.4455 174.72L90.5015 173.578C90.4142 174.138 90.4407 174.71 90.5795 175.26C90.8226 176.18 91.3842 176.983 92.1645 177.528Z" fill="#3FBDF1"/>
<path d="M137.386 173.712L90.2556 187.013C89.7093 187.161 89.1265 187.089 88.6326 186.812C88.139 186.535 87.774 186.075 87.6161 185.531C87.5612 185.346 87.535 185.153 87.5381 184.96C87.5393 184.492 87.6919 184.038 87.973 183.664C88.2544 183.291 88.6491 183.019 89.0981 182.888L136.16 169.619C135.963 170.348 135.974 171.117 136.19 171.84C136.407 172.563 136.821 173.212 137.386 173.712Z" fill="#3FBDF1"/>
<path d="M152.927 167.706C152.927 168.173 152.775 168.627 152.493 168.999C152.212 169.372 151.816 169.642 151.367 169.769L143.976 171.85L137.392 173.722C136.827 173.221 136.413 172.573 136.196 171.849C135.98 171.126 135.969 170.357 136.166 169.628L142.874 167.737L150.206 165.666C150.752 165.512 151.336 165.58 151.832 165.856C152.327 166.132 152.693 166.593 152.849 167.138C152.901 167.323 152.927 167.514 152.927 167.706Z" fill="#D7E8F0"/>
<path d="M142.743 154.456C142.498 155.312 141.978 156.064 141.263 156.595C140.549 157.126 139.679 157.408 138.788 157.396C137.898 157.384 137.036 157.079 136.336 156.528C135.636 155.978 135.137 155.212 134.915 154.35C134.781 153.833 134.749 153.296 134.823 152.768C134.896 152.24 135.073 151.732 135.343 151.273C135.613 150.813 135.971 150.411 136.397 150.09C136.822 149.769 137.307 149.535 137.823 149.401C138.478 149.231 139.166 149.227 139.823 149.39C140.48 149.554 141.086 149.879 141.585 150.337C142.142 150.849 142.545 151.507 142.749 152.235C142.954 152.964 142.952 153.735 142.743 154.462V154.456Z" fill="white"/>
<g opacity="0.72">
<path opacity="0.72" d="M140.565 152.509C140.615 153 140.524 153.496 140.303 153.938C140.197 154.156 140.071 154.365 139.929 154.562C139.851 154.665 139.442 155.254 139.323 155.229C138.518 155.086 137.367 154.459 136.996 153.619C136.94 153.487 136.902 153.349 136.88 153.208C136.852 153.002 136.886 152.793 136.978 152.607C137.071 152.421 137.217 152.268 137.398 152.166C137.579 152.065 137.786 152.021 137.993 152.04C138.2 152.059 138.396 152.139 138.556 152.272C138.642 152.06 138.795 151.883 138.991 151.766C139.187 151.649 139.416 151.6 139.643 151.624C139.87 151.649 140.082 151.747 140.249 151.903C140.415 152.059 140.526 152.265 140.565 152.49V152.509Z" fill="#3FBDF1"/>
</g>
<path d="M98.2366 175.831C97.9037 176.609 97.3356 177.264 96.6121 177.703C95.8882 178.143 95.0452 178.345 94.2009 178.281C93.3566 178.217 92.5536 177.89 91.9043 177.347C91.255 176.803 90.792 176.07 90.5802 175.25C90.4416 174.701 90.4151 174.129 90.5022 173.569C90.6335 172.797 90.9845 172.078 91.5137 171.5C92.0425 170.923 92.727 170.51 93.4849 170.311C94.2168 170.117 94.989 170.134 95.7119 170.359C96.4352 170.584 97.0797 171.009 97.5721 171.584C98.0738 172.158 98.4023 172.863 98.5199 173.616C98.6376 174.369 98.5393 175.141 98.2366 175.84V175.831Z" fill="white"/>
<g opacity="0.72">
<path opacity="0.72" d="M96.2329 173.406C96.2822 173.898 96.1902 174.394 95.9677 174.835C95.8644 175.056 95.739 175.265 95.5933 175.459C95.5153 175.562 95.1066 176.152 94.9912 176.127C94.1831 175.984 93.0349 175.356 92.6636 174.514C92.6065 174.383 92.5675 174.244 92.5482 174.102C92.5195 173.897 92.5538 173.688 92.6462 173.502C92.7385 173.316 92.8848 173.162 93.0658 173.061C93.2471 172.96 93.4546 172.916 93.6611 172.935C93.8676 172.953 94.0639 173.034 94.2236 173.166C94.2854 173.015 94.3809 172.88 94.5032 172.772C94.6255 172.664 94.7712 172.585 94.9288 172.542C95.0717 172.509 95.2195 172.505 95.364 172.53C95.5081 172.556 95.6457 172.611 95.7677 172.692C95.89 172.773 95.9942 172.879 96.0744 173.001C96.1543 173.124 96.2083 173.262 96.2329 173.406Z" fill="#3FBDF1"/>
</g>
<path d="M143.97 171.85C143.686 172.783 143.074 173.583 142.246 174.1C141.418 174.618 140.431 174.818 139.467 174.664C138.503 174.51 137.628 174.013 137.002 173.263C136.377 172.514 136.044 171.563 136.065 170.588C136.086 169.612 136.459 168.677 137.116 167.955C137.773 167.233 138.669 166.773 139.639 166.661C140.608 166.548 141.586 166.791 142.391 167.343C143.195 167.895 143.773 168.721 144.017 169.666C144.201 170.384 144.185 171.139 143.97 171.85Z" fill="white"/>
<g opacity="0.72">
<path opacity="0.72" d="M141.81 169.865C141.857 170.357 141.765 170.852 141.545 171.294C141.44 171.514 141.315 171.722 141.171 171.918C141.093 172.021 140.684 172.611 140.569 172.586C139.76 172.442 138.609 171.815 138.238 170.976C138.182 170.843 138.143 170.704 138.122 170.561C138.094 170.356 138.128 170.146 138.22 169.96C138.312 169.775 138.459 169.621 138.64 169.52C138.821 169.419 139.028 169.375 139.235 169.394C139.442 169.412 139.638 169.493 139.798 169.625C139.885 169.414 140.039 169.238 140.235 169.122C140.432 169.006 140.66 168.956 140.887 168.981C141.114 169.006 141.326 169.104 141.493 169.26C141.659 169.416 141.771 169.622 141.81 169.847V169.865Z" fill="#3FBDF1"/>
</g>
<path d="M135.599 182.766C132.894 182.916 129.983 179.022 129.093 178.052C128.995 177.949 128.883 177.86 128.76 177.787L126.342 175.831L126.747 178.907C127.393 180.389 130.803 183.621 133.234 187.331C135.664 191.041 133.349 191.852 132.048 192.323C130.747 192.794 129.387 190.336 129.917 193.006C130.448 195.677 127.296 195.714 125.331 195.381C123.365 195.047 122.66 192.885 123.106 194.582C123.552 196.279 122.08 197.518 120.751 197.574C119.743 197.624 117.805 196.264 116.932 195.608C116.732 196.682 116.011 198.697 113.5 197.624C110.164 196.198 106.926 187.677 104.452 178.957C101.978 170.237 85.9532 154.331 83.6164 137.489C83.6164 137.461 83.6164 137.42 83.6164 137.392C83.4916 136.119 83.4279 134.837 83.426 133.545C83.4266 131.09 83.6647 128.641 84.1374 126.232C84.475 124.479 84.9264 122.75 85.4883 121.056L111.946 126.31C111.765 126.51 111.584 126.709 111.403 126.918C105.21 134.11 108.829 143.23 113.54 149.925C118.32 156.739 123.821 163.472 130.107 168.957C131.953 170.564 133.678 172.304 135.268 174.165L134.925 174.355C135.298 175.082 135.715 175.787 136.173 176.464C138.042 179.041 138.316 182.614 135.599 182.766Z" fill="white"/>
<path d="M118.748 121.327L179.167 103.734C182.069 102.898 185.184 103.245 187.832 104.7C190.479 106.155 192.443 108.598 193.294 111.496L206.27 156.072C207.106 158.974 206.76 162.089 205.307 164.737C203.855 167.385 201.414 169.351 198.517 170.205L134.126 188.95" stroke="black" stroke-width="4.57" stroke-miterlimit="10"/>
<path d="M110.586 195.799L92.8799 200.959C89.9771 201.797 86.8608 201.45 84.2132 199.995C81.5655 198.54 79.6021 196.096 78.7525 193.197L65.7765 148.621C64.9394 145.721 65.2848 142.606 66.7371 139.96C68.1895 137.313 70.6302 135.349 73.5265 134.497L73.9914 134.363L74.3814 134.247L82.6557 131.836" stroke="black" stroke-width="4.57" stroke-miterlimit="10"/>
<path d="M127.981 190.735H127.97" stroke="black" stroke-width="4.57" stroke-miterlimit="10"/>
<path d="M115.575 194.354H115.564" stroke="black" stroke-width="4.57" stroke-miterlimit="10"/>
<path d="M118.94 177.266C119.811 182.015 123.767 187.159 127.963 190.722C129.183 191.758 131.879 193.019 133.342 191.836C136.5 189.29 131.102 185.097 129.614 183.412C127.807 181.366 126.347 178.966 125.804 176.261C125.757 176.094 125.767 175.917 125.832 175.756C125.896 175.668 125.986 175.604 126.089 175.572C126.192 175.54 126.302 175.542 126.403 175.578C126.605 175.652 126.786 175.772 126.934 175.927C128.644 177.487 130.169 179.213 131.717 180.919C132.812 182.139 135.66 183.653 137.058 182.099C140.091 178.726 131.508 170.867 129.311 168.939C123.031 163.447 117.521 156.714 112.741 149.907C108.03 143.211 104.41 134.091 110.604 126.9C113.836 123.156 118.622 121.521 122.896 119.309C129.792 115.752 131.211 109.824 131.211 109.824" stroke="black" stroke-width="4.57" stroke-miterlimit="10"/>
<path d="M114.934 182.093C114.934 182.093 118.503 192.267 126.085 195.434C126.535 195.634 127.025 195.73 127.517 195.716C128.01 195.701 128.493 195.576 128.931 195.349C129.867 194.825 130.631 193.789 129.317 191.712" stroke="black" stroke-width="4.57" stroke-miterlimit="10"/>
<path d="M109.992 184.47C111.384 188.245 113.231 192.192 116.201 195C117.555 196.276 119.271 197.54 121.193 197.621C123.508 197.718 123.689 195.384 122.753 193.796C122.551 193.455 122.307 193.141 122.029 192.86" stroke="black" stroke-width="4.57" stroke-miterlimit="10"/>
<path d="M116.201 195C116.201 195 116.032 199.056 112.697 197.624C109.362 196.192 106.114 187.674 103.649 178.951C101.184 170.227 85.0693 154.275 82.7824 137.392L82.8073 137.598C82.8073 137.561 82.8073 137.533 82.8073 137.495C82.4176 133.735 82.5902 129.938 83.319 126.229C90.5418 89.675 139.239 84.8391 139.239 84.8391" stroke="black" stroke-width="4.57" stroke-miterlimit="10"/>
<path d="M211.389 162.037C210.042 166.015 206.709 168.552 202.604 169.17C200.844 169.428 198.947 169.666 197.3 168.858C196.092 168.268 194.903 166.892 195.265 165.447C194.728 165.454 194.193 165.393 193.671 165.266C192.956 165.095 192.217 164.755 191.902 164.096C191.587 163.438 191.808 162.521 192.32 161.931C192.878 161.381 193.564 160.98 194.317 160.764C194.5 160.697 194.686 160.639 194.875 160.593C194.266 160.598 193.657 160.559 193.053 160.477C191.893 160.327 190.592 159.831 190.245 158.721C190.149 158.343 190.15 157.947 190.248 157.571C190.347 157.193 190.539 156.847 190.807 156.565C191.353 156.004 192.037 155.597 192.791 155.385C192.869 155.367 192.935 155.339 193.01 155.32C191.634 155.301 190.226 155.027 189.618 153.722C189.423 153.259 189.367 152.748 189.459 152.254C189.55 151.759 189.785 151.302 190.133 150.939C191.35 149.573 193.172 149.379 194.891 149.248C196.61 149.117 198.7 149.058 200.725 149.021C201.165 149.009 201.596 148.897 201.986 148.693C202.376 148.489 202.714 148.198 202.975 147.844C203.235 147.489 203.411 147.08 203.489 146.647C203.567 146.213 203.545 145.769 203.424 145.345C202.635 142.537 202.301 139.473 203.964 138.725C206.444 137.601 208.154 140.662 208.865 142.543C211.04 148.309 213.461 155.947 211.389 162.037Z" fill="white"/>
<path d="M200.928 159.719C198.922 160.146 196.891 160.583 194.857 160.602C194.667 160.649 194.481 160.706 194.298 160.774C193.545 160.989 192.859 161.39 192.301 161.94C191.79 162.53 191.543 163.404 191.883 164.106C192.223 164.808 192.938 165.104 193.652 165.276C194.174 165.402 194.71 165.463 195.247 165.457C196.345 165.434 197.437 165.297 198.507 165.048C198.688 165.011 200.903 164.755 201.075 164.714" stroke="black" stroke-width="4.57" stroke-miterlimit="10"/>
<path d="M192.988 155.329C192.913 155.348 192.847 155.376 192.769 155.395C192.015 155.606 191.331 156.013 190.785 156.574C190.517 156.857 190.324 157.202 190.226 157.58C190.128 157.957 190.127 158.352 190.223 158.73C190.585 159.841 191.886 160.337 193.031 160.487C193.635 160.568 194.244 160.607 194.853 160.602" stroke="black" stroke-width="4.57" stroke-miterlimit="10"/>
<path d="M202.613 155.12C202.46 155.12 202.316 155.12 202.167 155.12L194.916 155.282C194.348 155.282 193.668 155.339 192.988 155.32C191.612 155.301 190.205 155.027 189.596 153.722C189.401 153.259 189.345 152.748 189.437 152.254C189.528 151.759 189.762 151.302 190.111 150.939C191.328 149.573 193.15 149.379 194.869 149.248C196.588 149.117 198.682 149.064 200.706 149.021C201.148 149.011 201.581 148.899 201.973 148.696C202.364 148.492 202.704 148.201 202.965 147.846C203.227 147.49 203.403 147.079 203.481 146.644C203.559 146.21 203.536 145.763 203.415 145.339C202.625 142.531 202.285 139.464 203.951 138.715C206.432 137.592 208.141 140.653 208.853 142.534C211.037 148.3 213.461 155.95 211.389 162.028C210.038 166.006 206.709 168.549 202.607 169.16C200.85 169.422 198.947 169.659 197.303 168.848C196.101 168.262 194.91 166.889 195.268 165.444" stroke="black" stroke-width="4.57" stroke-miterlimit="10"/>
<g opacity="0.54">
<path opacity="0.54" d="M145.152 138.774C145.097 138.414 145.015 138.058 144.905 137.711L143.679 133.745C143.305 132.531 142.89 131.249 141.935 130.413C140.166 128.853 137.439 129.436 135.177 130.116L129.627 131.783C128.351 132.166 127.056 132.559 125.942 133.286C124.828 134.013 123.898 135.143 123.724 136.463C123.593 137.436 123.88 138.409 124.163 139.352L125.305 143.158C125.683 144.406 126.101 145.723 127.084 146.59C128.834 148.113 131.508 147.542 133.736 146.883L139.414 145.208C142.84 144.185 145.704 142.353 145.152 138.774Z" fill="white"/>
<path opacity="0.54" d="M137.364 139.239C137.593 138.998 137.754 138.701 137.829 138.377C137.905 138.053 137.894 137.715 137.795 137.397C137.697 137.079 137.516 136.794 137.271 136.569C137.025 136.344 136.725 136.189 136.4 136.119L134.64 135.72L132.883 135.321C132.56 135.243 132.222 135.252 131.904 135.348C131.585 135.444 131.298 135.623 131.072 135.867C130.846 136.111 130.689 136.41 130.617 136.735C130.544 137.059 130.56 137.397 130.662 137.714L131.195 139.436L131.726 141.158C131.82 141.478 131.997 141.766 132.24 141.994C132.482 142.222 132.781 142.382 133.105 142.456C133.43 142.53 133.768 142.516 134.086 142.416C134.403 142.315 134.688 142.132 134.911 141.885L136.137 140.562L137.364 139.239Z" fill="#3FBDF1"/>
</g>
<path d="M263.031 270.9H247.734" stroke="#CCDDE2" stroke-width="4.57" stroke-miterlimit="10"/>
<path d="M245.129 175.26C254.483 175.26 262.067 167.676 262.067 158.321C262.067 148.967 254.483 141.383 245.129 141.383C235.774 141.383 228.19 148.967 228.19 158.321C228.19 167.676 235.774 175.26 245.129 175.26Z" fill="#3FBDF1"/>
<path d="M242.387 165.915C242.189 165.915 241.994 165.877 241.812 165.801C241.63 165.726 241.465 165.615 241.326 165.475L236.958 161.107C236.676 160.826 236.518 160.445 236.518 160.048C236.518 159.65 236.675 159.269 236.956 158.987C237.237 158.706 237.618 158.548 238.016 158.547C238.414 158.547 238.795 158.705 239.076 158.986L242.396 162.306L251.191 153.504C251.472 153.223 251.853 153.064 252.251 153.064C252.649 153.064 253.03 153.221 253.311 153.502C253.593 153.783 253.751 154.165 253.751 154.562C253.751 154.959 253.594 155.341 253.313 155.622L243.444 165.491C243.162 165.767 242.781 165.919 242.387 165.915Z" fill="white"/>
</svg>
